<svg width="1000" height="1000" viewBox="0 0 1000 1000" fill="none" xmlns="http://www.w3.org/2000/svg">
<g clip-path="url(#clip0_28_2)">
<g filter="url(#filter0_f_28_2)">
<path d="M1009.95 508C999.2 587.25 946.45 660.5 909.55 728.75C872.6 796.95 841.45 872.35 788.45 917.3C735.5 962.25 660.25 977.55 591.7 998.45C523.15 1019.35 440.7 1060.85 377.05 1042.7C313.4 1024.55 267.7 938.5 209.85 889.55C152 840.6 57 812.6 29.8 749.05C2.6 685.45 28.6 578.85 46.65 508C64.7 437.15 115.35 393.45 138.15 323.85C160.9 254.2 143.85 150.35 183.3 90.1501C222.75 29.9501 307.35 -28.5499 374.75 -37.4999C442.2 -46.4499 522.2 9.10012 587.75 36.4501C653.3 63.7501 703.75 90.3001 768.15 126.4C832.6 162.55 933.9 189.7 974.2 253.3C1014.5 316.9 1020.75 428.75 1009.95 508Z" fill="url(#paint0_radial_28_2)" style="mix-blend-mode:multiply"/>
<path d="M933.65 661.95C900 715.75 802.1 725.8 750.8 771.9C699.45 818 679.25 910.95 625.65 938.6C572.1 966.25 484.4 960.1 429.4 937.75C374.35 915.4 333.4 848.1 295.6 804.45C257.75 760.75 241 721.35 202.5 675.75C164 630.15 79.4 588.35 64.6 530.85C49.8 473.3 88.55 394.1 113.7 330.7C138.9 267.3 166.05 185.55 215.6 150.55C265.2 115.5 349.05 139.85 411.1 120.6C473.15 101.35 531.45 33.0499 587.9 34.9999C644.35 36.8999 708 89.7999 749.75 132.15C791.5 174.5 804.5 236.35 838.3 289.15C872.1 342 936.7 386.9 952.6 449.05C968.5 511.2 967.25 608.15 933.65 661.95Z" fill="url(#paint1_radial_28_2)" style="mix-blend-mode:multiply"/>
<path d="M859.25 552C851.7 600.6 798.3 651.35 761.4 686.2C724.55 721.05 679.6 741.05 637.95 761.15C596.3 781.25 557.25 796.15 511.45 806.9C465.7 817.65 404 841.95 363.2 825.6C322.35 809.3 297.9 747.5 266.5 709.05C235.15 670.6 191.6 639.45 174.8 594.95C158.05 550.5 157.55 491 165.9 442.2C174.25 393.35 195.05 338.9 224.9 302.05C254.75 265.2 304.2 255.8 344.95 221.1C385.7 186.4 423.45 102.7 469.4 93.9002C515.3 85.0502 568.25 147.4 620.55 168.15C672.85 188.9 752.2 180.7 783.2 218.45C814.2 256.15 793.95 338.9 806.6 394.5C819.3 450.1 866.8 503.4 859.25 552Z" fill="url(#paint2_radial_28_2)" style="mix-blend-mode:multiply"/>
<path d="M794.8 641.7C773.45 681.3 720.75 707.4 682.95 733.85C645.2 760.35 607.8 793.65 568.15 800.45C528.45 807.25 487.85 780.65 444.95 774.65C402.05 768.7 342.1 787.15 310.8 764.6C279.55 742.05 276.95 680.55 257.3 639.45C237.7 598.4 195.25 560.55 193.15 518.15C191.05 475.8 224.65 428.1 244.75 385.2C264.9 342.3 279.9 285.4 313.9 260.75C347.9 236.05 406.75 240.1 448.85 237.05C490.9 233.95 530.55 231.95 566.4 242.2C602.25 252.5 625.35 280.35 663.95 298.55C702.5 316.8 773.2 318.65 797.75 351.6C822.25 384.5 811.6 447.75 811.1 496.1C810.6 544.45 816.15 602.05 794.8 641.7Z" fill="url(#paint3_radial_28_2)" style="mix-blend-mode:multiply"/>
<path d="M794.8 641.7C773.45 681.3 720.75 707.4 682.95 733.85C645.2 760.35 607.8 793.65 568.15 800.45C528.45 807.25 487.85 780.65 444.95 774.65C402.05 768.7 342.1 787.15 310.8 764.6C279.55 742.05 276.95 680.55 257.3 639.45C237.7 598.4 195.25 560.55 193.15 518.15C191.05 475.8 224.65 428.1 244.75 385.2C264.9 342.3 279.9 285.4 313.9 260.75C347.9 236.05 406.75 240.1 448.85 237.05C490.9 233.95 530.55 231.95 566.4 242.2C602.25 252.5 625.35 280.35 663.95 298.55C702.5 316.8 773.2 318.65 797.75 351.6C822.25 384.5 811.6 447.75 811.1 496.1C810.6 544.45 816.15 602.05 794.8 641.7Z" fill="url(#paint4_radial_28_2)" style="mix-blend-mode:screen"/>
<path d="M706.2 552.15C697.1 588.55 708.55 635.85 689.65 662.9C670.75 689.95 625.5 699.2 592.75 714.45C560 729.75 524.25 758.8 493.3 754.6C462.3 750.4 435.1 707.75 406.95 689.25C378.75 670.7 341 666.85 324.3 643.35C307.6 619.9 309.55 578.95 306.7 548.4C303.85 517.85 300.9 488.15 307.25 460.05C313.6 431.95 330.15 408.75 344.9 379.85C359.6 350.95 370.05 302.75 395.45 286.5C420.9 270.3 462.05 285.6 497.45 282.55C532.85 279.45 578.4 255.45 607.8 268C637.2 280.55 651.05 328.45 673.8 357.85C696.5 387.2 738.8 411.95 744.2 444.35C749.6 476.7 715.3 515.7 706.2 552.15Z" fill="url(#paint5_radial_28_2)" style="mix-blend-mode:multiply"/>
<path d="M706.2 552.15C697.1 588.55 708.55 635.85 689.65 662.9C670.75 689.95 625.5 699.2 592.75 714.45C560 729.75 524.25 758.8 493.3 754.6C462.3 750.4 435.1 707.75 406.95 689.25C378.75 670.7 341 666.85 324.3 643.35C307.6 619.9 309.55 578.95 306.7 548.4C303.85 517.85 300.9 488.15 307.25 460.05C313.6 431.95 330.15 408.75 344.9 379.85C359.6 350.95 370.05 302.75 395.45 286.5C420.9 270.3 462.05 285.6 497.45 282.55C532.85 279.45 578.4 255.45 607.8 268C637.2 280.55 651.05 328.45 673.8 357.85C696.5 387.2 738.8 411.95 744.2 444.35C749.6 476.7 715.3 515.7 706.2 552.15Z" fill="url(#paint6_radial_28_2)" style="mix-blend-mode:screen"/>
<path d="M663.65 582.9C652.2 607.35 632.3 633.95 610.35 648.6C588.4 663.25 558.3 665.75 531.95 670.8C505.6 675.9 474.45 687.5 452.25 679.05C430 670.65 414.55 639.35 398.65 620.2C382.75 601.05 366.15 585.25 356.85 564.15C347.5 543.05 342.7 517.6 342.8 493.6C342.9 469.6 349 445.2 357.4 420.1C365.75 394.95 373.3 356.8 393.05 342.75C412.8 328.7 449.15 340.35 476 335.75C502.8 331.2 531.1 309.85 553.95 315.2C576.85 320.55 594.15 350 613.3 367.8C632.45 385.55 657.9 399.5 668.85 421.85C679.75 444.2 679.75 474.95 678.85 501.8C678 528.65 675.05 558.45 663.65 582.9Z" fill="url(#paint7_radial_28_2)" style="mix-blend-mode:multiply"/>
<path d="M663.65 582.9C652.2 607.35 632.3 633.95 610.35 648.6C588.4 663.25 558.3 665.75 531.95 670.8C505.6 675.9 474.45 687.5 452.25 679.05C430 670.65 414.55 639.35 398.65 620.2C382.75 601.05 366.15 585.25 356.85 564.15C347.5 543.05 342.7 517.6 342.8 493.6C342.9 469.6 349 445.2 357.4 420.1C365.75 394.95 373.3 356.8 393.05 342.75C412.8 328.7 449.15 340.35 476 335.75C502.8 331.2 531.1 309.85 553.95 315.2C576.85 320.55 594.15 350 613.3 367.8C632.45 385.55 657.9 399.5 668.85 421.85C679.75 444.2 679.75 474.95 678.85 501.8C678 528.65 675.05 558.45 663.65 582.9Z" fill="url(#paint8_radial_28_2)" style="mix-blend-mode:screen"/>
<path d="M624.9 539.65C618.85 557.1 601.8 571.3 588.65 585.55C575.55 599.8 562.8 618.3 546.15 625C529.55 631.75 508.2 626.75 488.9 626C469.65 625.25 445.2 630 430.55 620.55C415.85 611.1 411.75 585.7 400.85 569.35C389.9 553 368.05 539.8 365.05 522.5C362.1 505.25 375.55 483.15 382.95 465.65C390.35 448.15 398.65 433.55 409.45 417.5C420.3 401.45 431.55 375.75 447.95 369.4C464.3 363.05 487.7 377.95 507.85 379.3C527.95 380.65 552.45 369.7 568.7 377.55C584.9 385.4 595.8 409.2 605.15 426.35C614.5 443.55 621.5 461.75 624.8 480.65C628.1 499.5 630.9 522.15 624.9 539.65Z" fill="url(#paint9_radial_28_2)" style="mix-blend-mode:multiply"/>
<path d="M624.9 539.65C618.85 557.1 601.8 571.3 588.65 585.55C575.55 599.8 562.8 618.3 546.15 625C529.55 631.75 508.2 626.75 488.9 626C469.65 625.25 445.2 630 430.55 620.55C415.85 611.1 411.75 585.7 400.85 569.35C389.9 553 368.05 539.8 365.05 522.5C362.1 505.25 375.55 483.15 382.95 465.65C390.35 448.15 398.65 433.55 409.45 417.5C420.3 401.45 431.55 375.75 447.95 369.4C464.3 363.05 487.7 377.95 507.85 379.3C527.95 380.65 552.45 369.7 568.7 377.55C584.9 385.4 595.8 409.2 605.15 426.35C614.5 443.55 621.5 461.75 624.8 480.65C628.1 499.5 630.9 522.15 624.9 539.65Z" fill="url(#paint10_radial_28_2)" style="mix-blend-mode:screen"/>
</g>
<mask id="mask0_28_2" style="mask-type:luminance" maskUnits="userSpaceOnUse" x="0" y="0" width="1000" height="1000">
<path d="M1000 0H0V1000H1000V0Z" fill="url(#paint11_radial_28_2)"/>
</mask>
<g mask="url(#mask0_28_2)">
<path d="M1000 0H0V1000H1000V0Z" fill="url(#paint12_linear_28_2)" style="mix-blend-mode:overlay"/>
</g>
<mask id="mask1_28_2" style="mask-type:luminance" maskUnits="userSpaceOnUse" x="0" y="0" width="1000" height="1000">
<path d="M1000 0H0V1000H1000V0Z" fill="url(#paint13_radial_28_2)"/>
</mask>
<g mask="url(#mask1_28_2)">
<g opacity="0.045" style="mix-blend-mode:overlay">
<path d="M1000 0H0V1000H1000V0Z" fill="black"/>
</g>
</g>
<path d="M527.2 664.05C599.963 664.05 658.95 605.063 658.95 532.3C658.95 459.536 599.963 400.55 527.2 400.55C454.436 400.55 395.45 459.536 395.45 532.3C395.45 605.063 454.436 664.05 527.2 664.05Z" fill="url(#paint14_radial_28_2)"/>
<path d="M500 678.5C598.583 678.5 678.5 598.583 678.5 500C678.5 401.417 598.583 321.5 500 321.5C401.417 321.5 321.5 401.417 321.5 500C321.5 598.583 401.417 678.5 500 678.5Z" fill="url(#paint15_radial_28_2)" style="mix-blend-mode:multiply"/>
<path d="M500 585C546.944 585 585 546.944 585 500C585 453.056 546.944 415 500 415C453.056 415 415 453.056 415 500C415 546.944 453.056 585 500 585Z" fill="url(#paint16_radial_28_2)"/>
<path d="M495.75 545.9C524.855 545.9 548.45 522.305 548.45 493.2C548.45 464.095 524.855 440.5 495.75 440.5C466.645 440.5 443.05 464.095 443.05 493.2C443.05 522.305 466.645 545.9 495.75 545.9Z" fill="url(#paint17_radial_28_2)"/>
<path d="M474.5 501.7C491.4 501.7 505.1 488 505.1 471.1C505.1 454.2 491.4 440.5 474.5 440.5C457.6 440.5 443.9 454.2 443.9 471.1C443.9 488 457.6 501.7 474.5 501.7Z" fill="url(#paint18_radial_28_2)"/>
<path d="M474.5 515.45C498.994 515.45 518.85 495.594 518.85 471.1C518.85 446.606 498.994 426.75 474.5 426.75C450.006 426.75 430.15 446.606 430.15 471.1C430.15 495.594 450.006 515.45 474.5 515.45Z" fill="url(#paint19_radial_28_2)"/>
<path opacity="0.765" d="M464.3 470.1C469.381 470.1 473.5 465.981 473.5 460.9C473.5 455.819 469.381 451.7 464.3 451.7C459.219 451.7 455.1 455.819 455.1 460.9C455.1 465.981 459.219 470.1 464.3 470.1Z" fill="white"/>
</g>
<defs>
<filter id="filter0_f_28_2" x="16.7197" y="-39.7648" width="999.219" height="1088.24" filterUnits="userSpaceOnUse" color-interpolation-filters="sRGB">
<feFlood flood-opacity="0" result="BackgroundImageFix"/>
<feBlend mode="normal" in="SourceGraphic" in2="BackgroundImageFix" result="shape"/>
<feGaussianBlur stdDeviation="0.65" result="effect1_foregroundBlur_28_2"/>
</filter>
<radialGradient id="paint0_radial_28_2" cx="0" cy="0" r="1" gradientUnits="userSpaceOnUse" gradientTransform="translate(406.2 425.2) scale(709.98 709.98)">
<stop stop-color="#E7DFF3" stop-opacity="0.046"/>
<stop offset="0.22" stop-color="#E7DFF3" stop-opacity="0.0423"/>
<stop offset="0.42" stop-color="#E7DFF3" stop-opacity="0.0359"/>
<stop offset="0.62" stop-color="#E7DFF3" stop-opacity="0.0267"/>
<stop offset="0.82" stop-color="#E7DFF3" stop-opacity="0.0138"/>
<stop offset="1" stop-color="#E7DFF3" stop-opacity="0"/>
</radialGradient>
<radialGradient id="paint1_radial_28_2" cx="0" cy="0" r="1" gradientUnits="userSpaceOnUse" gradientTransform="translate(436 418) scale(601 601)">
<stop stop-color="#E4DDF6" stop-opacity="0.067"/>
<stop offset="0.22" stop-color="#E4DDF6" stop-opacity="0.0616"/>
<stop offset="0.42" stop-color="#E4DDF6" stop-opacity="0.0523"/>
<stop offset="0.62" stop-color="#E4DDF6" stop-opacity="0.0389"/>
<stop offset="0.82" stop-color="#E4DDF6" stop-opacity="0.0201"/>
<stop offset="1" stop-color="#E4DDF6" stop-opacity="0"/>
</radialGradient>
<radialGradient id="paint2_radial_28_2" cx="0" cy="0" r="1" gradientUnits="userSpaceOnUse" gradientTransform="translate(431.8 432.8) scale(496.525 496.525)">
<stop stop-color="#C2B9ED" stop-opacity="0.094"/>
<stop offset="0.22" stop-color="#C2B9ED" stop-opacity="0.0865"/>
<stop offset="0.42" stop-color="#C2B9ED" stop-opacity="0.0733"/>
<stop offset="0.62" stop-color="#C2B9ED" stop-opacity="0.0545"/>
<stop offset="0.82" stop-color="#C2B9ED" stop-opacity="0.0282"/>
<stop offset="1" stop-color="#C2B9ED" stop-opacity="0"/>
</radialGradient>
<radialGradient id="paint3_radial_28_2" cx="0" cy="0" r="1" gradientUnits="userSpaceOnUse" gradientTransform="translate(455.6 456.6) scale(413.265 413.265)">
<stop stop-color="#C2B9ED" stop-opacity="0.128"/>
<stop offset="0.22" stop-color="#C2B9ED" stop-opacity="0.1178"/>
<stop offset="0.42" stop-color="#C2B9ED" stop-opacity="0.0998"/>
<stop offset="0.62" stop-color="#C2B9ED" stop-opacity="0.0742"/>
<stop offset="0.82" stop-color="#C2B9ED" stop-opacity="0.0384"/>
<stop offset="1" stop-color="#C2B9ED" stop-opacity="0"/>
</radialGradient>
<radialGradient id="paint4_radial_28_2" cx="0" cy="0" r="1" gradientUnits="userSpaceOnUse" gradientTransform="translate(394 417.4) scale(168 168)">
<stop stop-color="white" stop-opacity="0.16"/>
<stop offset="0.45" stop-color="white" stop-opacity="0.07"/>
<stop offset="1" stop-color="white" stop-opacity="0"/>
</radialGradient>
<radialGradient id="paint5_radial_28_2" cx="0" cy="0" r="1" gradientUnits="userSpaceOnUse" gradientTransform="translate(455 463) scale(319.955 319.955)">
<stop stop-color="#7E6DE3" stop-opacity="0.16"/>
<stop offset="0.22" stop-color="#7E6DE3" stop-opacity="0.1472"/>
<stop offset="0.42" stop-color="#7E6DE3" stop-opacity="0.1248"/>
<stop offset="0.62" stop-color="#7E6DE3" stop-opacity="0.0928"/>
<stop offset="0.82" stop-color="#7E6DE3" stop-opacity="0.048"/>
<stop offset="1" stop-color="#7E6DE3" stop-opacity="0"/>
</radialGradient>
<radialGradient id="paint6_radial_28_2" cx="0" cy="0" r="1" gradientUnits="userSpaceOnUse" gradientTransform="translate(405.5 431.5) scale(135 135)">
<stop stop-color="white" stop-opacity="0.16"/>
<stop offset="0.45" stop-color="white" stop-opacity="0.07"/>
<stop offset="1" stop-color="white" stop-opacity="0"/>
</radialGradient>
<radialGradient id="paint7_radial_28_2" cx="0" cy="0" r="1" gradientUnits="userSpaceOnUse" gradientTransform="translate(471.5 466) scale(246.975 246.975)">
<stop stop-color="#5D4BB3" stop-opacity="0.22"/>
<stop offset="0.22" stop-color="#5D4BB3" stop-opacity="0.2024"/>
<stop offset="0.42" stop-color="#5D4BB3" stop-opacity="0.1716"/>
<stop offset="0.62" stop-color="#5D4BB3" stop-opacity="0.1276"/>
<stop offset="0.82" stop-color="#5D4BB3" stop-opacity="0.066"/>
<stop offset="1" stop-color="#5D4BB3" stop-opacity="0"/>
</radialGradient>
<radialGradient id="paint8_radial_28_2" cx="0" cy="0" r="1" gradientUnits="userSpaceOnUse" gradientTransform="translate(433 441.5) scale(105 105)">
<stop stop-color="white" stop-opacity="0.16"/>
<stop offset="0.45" stop-color="white" stop-opacity="0.07"/>
<stop offset="1" stop-color="white" stop-opacity="0"/>
</radialGradient>
<radialGradient id="paint9_radial_28_2" cx="0" cy="0" r="1" gradientUnits="userSpaceOnUse" gradientTransform="translate(475.1 477.6) scale(176.81 176.81)">
<stop stop-color="#5D4BB3" stop-opacity="0.28"/>
<stop offset="0.22" stop-color="#5D4BB3" stop-opacity="0.2576"/>
<stop offset="0.42" stop-color="#5D4BB3" stop-opacity="0.2184"/>
<stop offset="0.62" stop-color="#5D4BB3" stop-opacity="0.1624"/>
<stop offset="0.82" stop-color="#5D4BB3" stop-opacity="0.084"/>
<stop offset="1" stop-color="#5D4BB3" stop-opacity="0"/>
</radialGradient>
<radialGradient id="paint10_radial_28_2" cx="0" cy="0" r="1" gradientUnits="userSpaceOnUse" gradientTransform="translate(446.5 459.4) scale(78 78)">
<stop stop-color="white" stop-opacity="0.16"/>
<stop offset="0.45" stop-color="white" stop-opacity="0.07"/>
<stop offset="1" stop-color="white" stop-opacity="0"/>
</radialGradient>
<radialGradient id="paint11_radial_28_2" cx="0" cy="0" r="1" gradientUnits="userSpaceOnUse" gradientTransform="translate(500 500) scale(410)">
<stop stop-color="white"/>
<stop offset="0.8" stop-color="white" stop-opacity="0.45"/>
<stop offset="1" stop-color="white" stop-opacity="0"/>
</radialGradient>
<linearGradient id="paint12_linear_28_2" x1="150" y1="150" x2="900" y2="900" gradientUnits="userSpaceOnUse">
<stop stop-color="white" stop-opacity="0.2"/>
<stop offset="0.55" stop-color="white" stop-opacity="0"/>
<stop offset="1" stop-color="#150D38" stop-opacity="0.1"/>
</linearGradient>
<radialGradient id="paint13_radial_28_2" cx="0" cy="0" r="1" gradientUnits="userSpaceOnUse" gradientTransform="translate(500 500) scale(410)">
<stop stop-color="white"/>
<stop offset="0.8" stop-color="white" stop-opacity="0.45"/>
<stop offset="1" stop-color="white" stop-opacity="0"/>
</radialGradient>
<radialGradient id="paint14_radial_28_2" cx="0" cy="0" r="1" gradientUnits="userSpaceOnUse" gradientTransform="translate(527.2 532.3) scale(131.75)">
<stop stop-color="#0E0628" stop-opacity="0.55"/>
<stop offset="0.55" stop-color="#0E0628" stop-opacity="0.18"/>
<stop offset="1" stop-color="#0E0628" stop-opacity="0"/>
</radialGradient>
<radialGradient id="paint15_radial_28_2" cx="0" cy="0" r="1" gradientUnits="userSpaceOnUse" gradientTransform="translate(500 500) scale(190)">
<stop stop-color="#5D4BB3" stop-opacity="0.46"/>
<stop offset="0.4" stop-color="#5D4BB3" stop-opacity="0.2"/>
<stop offset="1" stop-color="#5D4BB3" stop-opacity="0"/>
</radialGradient>
<radialGradient id="paint16_radial_28_2" cx="0" cy="0" r="1" gradientUnits="userSpaceOnUse" gradientTransform="translate(466 459.2) scale(153)">
<stop stop-color="#DCCFFC"/>
<stop offset="0.14" stop-color="#8A75DE"/>
<stop offset="0.38" stop-color="#4D3AAC"/>
<stop offset="0.62" stop-color="#36277A"/>
<stop offset="0.86" stop-color="#1C115A"/>
<stop offset="1" stop-color="#08031C"/>
</radialGradient>
<radialGradient id="paint17_radial_28_2" cx="0" cy="0" r="1" gradientUnits="userSpaceOnUse" gradientTransform="translate(493.642 495.308) scale(57.97)">
<stop stop-color="#B49AF6" stop-opacity="0.42"/>
<stop offset="0.45" stop-color="#B49AF6" stop-opacity="0.14"/>
<stop offset="1" stop-color="#B49AF6" stop-opacity="0"/>
</radialGradient>
<radialGradient id="paint18_radial_28_2" cx="0" cy="0" r="1" gradientUnits="userSpaceOnUse" gradientTransform="translate(474.5 471.1) scale(30.6)">
<stop stop-color="white" stop-opacity="0.27"/>
<stop offset="0.6" stop-color="white" stop-opacity="0.054"/>
<stop offset="1" stop-color="white" stop-opacity="0"/>
</radialGradient>
<radialGradient id="paint19_radial_28_2" cx="0" cy="0" r="1" gradientUnits="userSpaceOnUse" gradientTransform="translate(465.63 458.682) scale(39.915)">
<stop stop-color="white" stop-opacity="0.558"/>
<stop offset="0.55" stop-color="white" stop-opacity="0.09"/>
<stop offset="1" stop-color="white" stop-opacity="0"/>
</radialGradient>
<clipPath id="clip0_28_2">
<rect width="1000" height="1000" fill="white"/>
</clipPath>
</defs>
</svg>
