<svg width="18" height="18" viewBox="0 0 18 18" fill="none" xmlns="http://www.w3.org/2000/svg">
<g clip-path="url(#clip0_143_109)">
<path d="M7.89095 1.96755C8.486 1.3142 9.51395 1.3142 10.109 1.96755L10.8741 2.80772C11.1748 3.13792 11.607 3.31695 12.0532 3.2961L13.1883 3.24305C14.071 3.20179 14.798 3.92872 14.7567 4.81144L14.7036 5.94658C14.6828 6.3927 14.8618 6.82491 15.192 7.12562L16.0322 7.89077C16.6856 8.48582 16.6856 9.51376 16.0322 10.1088L15.192 10.874C14.8618 11.1746 14.6828 11.6069 14.7036 12.053L14.7567 13.1882C14.798 14.0708 14.071 14.7978 13.1883 14.7566L12.0532 14.7035C11.607 14.6826 11.1748 14.8616 10.8741 15.1919L10.109 16.032C9.51395 16.6854 8.486 16.6854 7.89095 16.032L7.12581 15.1919C6.82509 14.8616 6.39288 14.6826 5.94676 14.7035L4.81162 14.7566C3.9289 14.7978 3.20198 14.0708 3.24324 13.1882L3.29628 12.053C3.31713 11.6069 3.13811 11.1746 2.80791 10.874L1.96773 10.1088C1.31439 9.51376 1.31439 8.48582 1.96773 7.89077L2.80791 7.12562C3.13811 6.82491 3.31713 6.3927 3.29628 5.94658L3.24324 4.81144C3.20198 3.92872 3.9289 3.20179 4.81163 3.24305L5.94676 3.2961C6.39288 3.31695 6.82509 3.13792 7.12581 2.80772L7.89095 1.96755Z" stroke="#2F3A44" stroke-opacity="0.8" stroke-width="1.5"/>
<path d="M6.75 9L8.25 10.5L11.25 7.5" stroke="#2F3A44" stroke-opacity="0.8" stroke-width="1.5" stroke-linecap="round" stroke-linejoin="round"/>
</g>
<defs>
<clipPath id="clip0_143_109">
<rect width="18" height="18" fill="white"/>
</clipPath>
</defs>
</svg>
