<svg width="87" height="57" viewBox="0 0 87 57" fill="none" xmlns="http://www.w3.org/2000/svg">
<g clip-path="url(#clip0_132_32)">
<path d="M77.7196 19.3264H48.3289C51.3099 17.4856 53.3076 14.1979 53.3076 10.4436C53.3076 4.68529 48.6231 0 42.864 0C38.5026 0 34.7615 2.68991 33.2008 6.49573C31.6401 2.68991 27.899 0 23.5376 0C17.7793 0 13.094 4.68451 13.094 10.4436C13.094 14.1979 15.0917 17.4856 18.0727 19.3264H9.28036C8.8496 19.3264 8.5 19.676 8.5 20.1068V35.6547C8.5 36.0855 8.8496 36.4351 9.28036 36.4351H12.4869V55.7209C12.4869 56.1517 12.8365 56.5013 13.2672 56.5013H73.7328C74.1635 56.5013 74.5131 56.1517 74.5131 55.7209V36.4351H77.7196C78.1504 36.4351 78.5 36.0855 78.5 35.6547V20.1068C78.5 19.676 78.1504 19.3264 77.7196 19.3264ZM40.6603 20.8872V34.8744H25.7421V20.8872H40.6603ZM39.6973 19.3264H33.9819V13.6111C33.9819 10.46 36.5462 7.8957 39.6973 7.8957C42.8484 7.8957 45.4127 10.46 45.4127 13.6111C45.4127 16.7622 42.8484 19.3264 39.6973 19.3264ZM32.4212 19.3264H26.7058C23.554 19.3264 20.9905 16.7622 20.9905 13.6111C20.9905 10.46 23.5547 7.8957 26.7058 7.8957C29.8569 7.8957 32.4212 10.46 32.4212 13.6111V19.3264ZM42.8648 1.56072C47.7623 1.56072 51.7476 5.54525 51.7476 10.4436C51.7476 14.8308 48.5474 18.4758 44.36 19.1907C45.9558 17.8547 46.9742 15.8507 46.9742 13.6111C46.9742 9.59923 43.7099 6.33498 39.6981 6.33498C37.4584 6.33498 35.4545 7.35335 34.1185 8.94919C34.8325 4.76177 38.4776 1.5615 42.8656 1.5615L42.8648 1.56072ZM14.6555 10.4444C14.6555 5.54681 18.64 1.5615 23.5383 1.5615C27.9255 1.5615 31.5714 4.76255 32.2854 8.94919C30.9494 7.35335 28.9447 6.33498 26.7058 6.33498C22.6932 6.33498 19.4297 9.59923 19.4297 13.6111C19.4297 15.8507 20.4481 17.8547 22.044 19.1907C17.8573 18.4766 14.6563 14.8316 14.6563 10.4436L14.6555 10.4444ZM10.0615 20.8879H24.1814V34.8751H10.0607L10.0615 20.8879ZM14.0484 36.4359H24.1821V54.9414H14.0476L14.0484 36.4359ZM25.7429 54.9414V36.4359H40.6603V54.9414H25.7421H25.7429ZM72.9532 54.9414H42.2202V36.4359H72.9516V54.9414H72.9532ZM76.9401 34.8751H42.2202V20.8879H76.9385V34.8751H76.9401Z" fill="#2F3A44"/>
<path d="M67.2121 24.0085H72.0543C73.0266 24.0085 73.8179 24.7998 73.8179 25.7721C73.8179 26.2029 74.1675 26.5525 74.5982 26.5525C75.029 26.5525 75.3786 26.2029 75.3786 25.7721C75.3786 23.939 73.8873 22.4478 72.0543 22.4478H67.2121C66.7814 22.4478 66.4318 22.7974 66.4318 23.2281C66.4318 23.6589 66.7814 24.0085 67.2121 24.0085Z" fill="#2F3A44"/>
<path d="M61.1831 24.0085H64.6619C65.0927 24.0085 65.4423 23.6589 65.4423 23.2281C65.4423 22.7974 65.0927 22.4478 64.6619 22.4478H61.1831C60.7523 22.4478 60.4027 22.7974 60.4027 23.2281C60.4027 23.6589 60.7523 24.0085 61.1831 24.0085Z" fill="#2F3A44"/>
</g>
<defs>
<clipPath id="clip0_132_32">
<rect width="70" height="56.5013" fill="white" transform="translate(8.5)"/>
</clipPath>
</defs>
</svg>
