<svg width="41" height="60" viewBox="0 0 41 60" fill="none" xmlns="http://www.w3.org/2000/svg">
<g clip-path="url(#clip0_635_1945)">
<path d="M0.70132 71.9136C0.844297 71.9712 0.994421 72 1.14455 72C1.57347 72 1.98811 71.7552 2.18112 71.3377C3.19626 69.1707 24.3067 24.2113 29.9471 12.0734C31.5985 12.4837 33.3571 12.7429 35.1943 12.7429C35.6947 12.7429 36.2023 12.7285 36.717 12.6925C41.0492 12.4334 45.1884 11.1807 49.1846 9.96401C49.7922 9.78402 50.1354 9.13609 49.9495 8.52415C49.7636 7.91222 49.1274 7.56665 48.5197 7.75383C44.6451 8.92731 40.6417 10.144 36.5741 10.3888C34.601 10.5111 32.6851 10.36 30.9193 9.9712C31.1338 9.50325 31.2768 9.19368 31.3125 9.10009C31.7486 8.0562 31.7486 6.89712 31.3197 5.84603C30.8907 4.79494 30.0829 3.98142 29.0464 3.54227C28.0098 3.10311 26.8588 3.10311 25.8151 3.53507C24.7714 3.96702 23.9636 4.78054 23.5275 5.82443C23.5203 5.83883 23.506 5.88203 23.4989 5.90362C23.1414 5.56526 22.7911 5.2125 22.448 4.87413C20.5393 2.97353 18.5733 1.00813 15.8211 0.281004C12.9258 -0.489316 9.63019 0.345798 7.01372 2.51997C4.95486 4.2118 3.29634 6.70274 2.08104 9.92081C1.85943 10.5183 2.15253 11.1807 2.74588 11.4111C2.88171 11.4615 3.01754 11.4902 3.15336 11.4902C3.61804 11.4902 4.04696 11.2095 4.22568 10.7487C5.29801 7.91942 6.72777 5.75244 8.47208 4.31259C10.4952 2.63516 13.0902 1.95123 15.242 2.51997C17.4009 3.08871 19.0666 4.75174 20.8395 6.52276C21.4114 7.0987 22.0262 7.66744 22.641 8.22178C18.459 19.6254 0.901487 68.1556 0.0722248 70.4594C-0.14224 71.0281 0.136564 71.676 0.70132 71.9136ZM25.6364 6.72434C25.8365 6.24919 26.2083 5.87483 26.6801 5.67325C26.916 5.57246 27.1662 5.52926 27.4164 5.52926C27.6666 5.52926 27.9168 5.57966 28.1599 5.68045C28.6389 5.88203 29.0035 6.25639 29.2036 6.73154C29.3966 7.21389 29.3966 7.73943 29.1965 8.21459C29.1536 8.31538 28.982 8.69694 28.7104 9.28008C28.4745 9.19368 28.2457 9.10009 28.0169 8.9993L28.3529 8.18579C28.596 7.59545 28.3243 6.92592 27.7381 6.68114C27.1519 6.43637 26.4871 6.71714 26.244 7.30028L24.6498 11.1447C24.4068 11.735 24.6784 12.4046 25.2646 12.6493C25.4076 12.7069 25.5577 12.7357 25.7079 12.7357C26.1582 12.7357 26.58 12.4693 26.7659 12.023L27.1233 11.1591C27.3235 11.2455 27.5165 11.3247 27.7238 11.4039C24.7356 17.8328 17.6512 32.9584 10.7454 47.6809C17.8656 28.0197 25.2789 7.58105 25.6364 6.72434Z" fill="#2F3A44"/>
</g>
<defs>
<clipPath id="clip0_635_1945">
<rect width="41" height="60" fill="white"/>
</clipPath>
</defs>
</svg>
