<svg width="50" height="70" viewBox="0 0 50 70" fill="none" xmlns="http://www.w3.org/2000/svg">
<g clip-path="url(#clip0_635_1948)">
<path d="M48.5244 11.7124C49.9972 10.2892 50.0599 8.03399 49.9762 6.1013C49.7492 -2.04272 12.0078 -2.01879 11.7417 6.08321C11.7357 6.07416 11.7506 7.9797 11.7447 7.9797C11.7447 9.38173 12.2615 10.7084 13.1935 11.7094L16.2854 15.0591L16.2167 34.0271C15.2757 35.4533 10.5528 42.3487 3.07212 49.0609C-5.33097 57.4851 4.91227 70.1754 16.8438 69.9917C17.8296 70.0188 19.4248 70.061 19.3501 68.656C19.3053 67.9926 18.7467 67.5012 18.0775 67.5344C10.4147 68.0801 4.95127 63.5936 3.13193 59.219C1.78765 55.9868 2.34331 52.9415 4.66143 50.8612C10.0117 46.0611 13.9432 41.246 16.2046 38.2063L16.1717 47.5923L12.5213 52.0185C11.5086 53.0889 11.7774 54.9823 11.7476 56.3151C11.7476 56.6045 11.8491 56.8819 12.0343 57.102C12.2345 57.3341 17.059 62.8217 30.8694 62.9302C44.16 63.1353 49.8835 57.2196 49.7251 57.0598C50.1673 56.6678 49.9163 54.717 49.9791 54.1924C49.9791 53.4115 49.7042 52.6396 49.1964 52.0125L45.5549 47.5983V15.05L48.5243 11.7153L48.5244 11.7124ZM18.6303 27.4123C24.4107 29.9751 37.4087 29.9721 43.165 27.3851V30.34C38.3286 33.2375 23.5086 33.2345 18.6211 30.3701L18.633 27.4123L18.6303 27.4123ZM43.165 19.1301C42.242 19.6246 40.9933 20.0739 39.4638 20.4417C38.8215 20.5954 38.4242 21.2437 38.5765 21.8949C39.1561 23.8487 42.0926 22.0427 43.165 21.7894V24.7292C38.3405 27.6207 23.5147 27.6237 18.6425 24.7684L18.6544 21.8136C22.6127 23.5231 30.3139 24.1502 35.6855 23.502C36.3427 23.4327 36.8177 22.8387 36.7489 22.1784C36.6802 21.5151 36.0857 21.0296 35.4375 21.1051C33.9618 21.2619 32.4293 21.3402 30.8789 21.3402C25.8513 21.3402 21.1941 20.4991 18.6666 19.1754L18.6756 16.3049C20.9041 17.0316 25.2297 18.1442 30.8726 18.1442C36.5724 18.0597 39.4072 17.3813 43.1683 16.2778V19.1301L43.165 19.1301ZM18.5913 38.626C19.6607 38.8853 22.5733 40.6371 23.123 38.6894C23.2694 38.0411 22.8691 37.3928 22.2268 37.2451C20.7481 36.9014 19.5203 36.4672 18.6002 35.9818L18.6122 33.0149C24.4016 35.5867 37.399 35.5897 43.1645 32.9968V35.9486C39.9472 37.836 31.4929 38.5898 26.265 37.9205C25.5989 37.8571 25.0193 38.3335 24.9536 38.9968C24.8849 39.6602 25.3629 40.2511 26.0171 40.3204C27.5795 40.4833 29.2135 40.5677 30.8715 40.5677C35.7289 40.5677 40.1831 39.829 43.1611 38.6018V41.5476C38.3336 44.4481 23.4091 44.4421 18.5781 41.5566L18.5871 38.6289L18.5913 38.626ZM14.5076 9.43386C15.5263 9.94944 16.8108 10.4077 18.3852 10.8027C19.0215 10.9595 19.6727 10.5675 19.831 9.9223C19.9893 9.27706 19.598 8.62277 18.9587 8.463C15.0424 7.47407 14.1581 6.37956 14.1342 6.08108C14.1581 4.99258 19.849 2.45992 30.8601 2.45992C41.8741 2.45992 47.5623 4.99258 47.586 6.08108C46.9109 8.90319 31.2188 10.646 23.0122 9.22283C22.367 9.14142 21.7576 9.59972 21.6679 10.257C21.5813 10.9173 22.0384 11.5233 22.6925 11.6138C25.2318 11.9575 27.9771 12.1294 30.857 12.1294C37.0915 12.1294 43.6368 11.261 47.2212 9.41276C47.0957 9.83789 43.9979 13.1516 43.6604 13.5676C40.0427 14.8098 36.4579 15.6872 30.8661 15.7385C24.067 15.7385 19.2304 13.9927 18.1727 13.5736C17.8561 13.1877 14.6058 9.85296 14.5043 9.43684L14.5076 9.43386ZM47.3499 53.5479C47.7651 53.9519 47.5262 55.3479 47.5859 55.8544C46.5523 56.8765 42.1789 60.4404 31.2692 60.5249C20.8525 60.6575 15.0511 56.8253 14.1341 55.8182V54.1991C14.1341 53.9669 14.2148 53.7438 14.3612 53.5629L17.6442 49.583C21.6652 51.7719 31.0871 52.4895 36.9007 51.5579C37.5549 51.4674 38.009 50.8584 37.9193 50.1981C37.8297 49.5378 37.2263 49.0704 36.5721 49.1699C34.8006 49.4172 32.8828 49.5438 30.8693 49.5438C25.767 49.5438 21.0683 48.6845 18.5553 47.3367L18.5672 44.207C24.3298 46.797 37.3962 46.8 43.1617 44.204V47.3548C42.1699 48.1146 39.305 48.0694 39.7711 49.8393C40.4492 51.7237 43.0392 49.9358 44.0758 49.589L47.3468 53.5539L47.3499 53.5479Z" fill="#2F3A44"/>
</g>
<defs>
<clipPath id="clip0_635_1948">
<rect width="50" height="70" fill="white"/>
</clipPath>
</defs>
</svg>
