<svg width="60" height="70" viewBox="0 0 60 70" fill="none" xmlns="http://www.w3.org/2000/svg">
<g clip-path="url(#clip0_635_1952)">
<path d="M57.7538 38.021L29.2501 9.51697C27.8747 8.13623 26.0309 7.34065 23.9866 7.27538L9.97555 7.28383C8.55102 7.28383 6.72332 7.48656 5.2627 8.29442L2.37601 5.40777C1.83231 4.86408 0.951479 4.86408 0.407777 5.40777C-0.135926 5.95147 -0.135926 6.83228 0.407777 7.37598L3.27296 10.2419C2.24316 12.012 2.26696 14.0946 2.27694 14.8741L2.28002 29.0608C2.34452 31.0313 3.13858 32.8736 4.51396 34.2459L33.0192 62.7507C34.4675 64.2014 36.4058 65 38.4785 65C40.5488 65 42.4871 64.2021 43.9347 62.7538L57.7561 48.9349C59.2044 47.485 60.0008 45.546 60 43.4749C60 41.4045 59.2013 39.4671 57.7538 38.021ZM54.7711 45.9499L40.9505 59.7681C40.2992 60.4185 39.4223 60.7771 38.48 60.7771C37.5362 60.7771 36.66 60.4185 36.008 59.7665L7.49971 31.2586C6.88536 30.6458 6.53134 29.8157 6.50292 28.9917L6.50216 14.98L6.50062 14.8218C6.49448 14.3043 6.52519 13.8888 6.57434 13.5417L11.5007 18.4687C11.1075 19.5968 11.3509 20.8985 12.2525 21.7993C13.5081 23.0548 15.5439 23.0548 16.8002 21.7993C18.0558 20.5437 18.0558 18.5071 16.8002 17.2516C15.8979 16.35 14.5978 16.1074 13.4689 16.4998L8.5779 11.6088C8.97186 11.5474 9.43339 11.5067 9.97709 11.5067L23.9198 11.4975C24.8137 11.5266 25.6431 11.8814 26.2597 12.5004L54.7673 41.0083C55.4185 41.658 55.7763 42.5357 55.7771 43.4787C55.7779 44.4217 55.4208 45.3003 54.7711 45.9499Z" fill="#2F3A44"/>
<path d="M43.0861 36.1979L42.7467 36.5373C42.3394 36.1752 41.983 35.9546 41.6776 35.8754C41.3721 35.7962 41.0553 35.8528 40.7272 36.0451C40.4218 36.2375 40.0371 36.5656 39.5732 37.0294L29.6624 46.9402C29.5719 46.8497 29.4814 46.7592 29.3909 46.6687C29.3004 46.5782 29.2042 46.482 29.1024 46.3802L32.3607 28.7308L24.2149 36.8767C23.7397 37.3519 23.4003 37.7592 23.1966 38.0986C23.0043 38.4267 22.9647 38.7604 23.0778 39.0998C23.191 39.4392 23.4625 39.8579 23.8924 40.3557L23.553 40.6951C23.3607 40.4575 23.0948 40.169 22.7554 39.8296C22.4386 39.4902 22.1331 39.1734 21.839 38.8792C21.5561 38.5964 21.2676 38.3192 20.9735 38.0477C20.6906 37.7648 20.4474 37.5442 20.2438 37.3858L20.5832 37.0464C20.9905 37.3858 21.3412 37.6008 21.6353 37.6913C21.9408 37.7705 22.2576 37.7139 22.5857 37.5216C22.9138 37.3292 23.3041 37.0068 23.7567 36.5542L31.8007 28.5102C32.2193 28.0916 32.4908 27.7522 32.6153 27.492C32.7511 27.2204 32.7567 26.9546 32.6323 26.6944C32.5191 26.4228 32.2815 26.0947 31.9195 25.7101L32.2589 25.3706C32.4286 25.563 32.6492 25.8062 32.9208 26.1004C33.1923 26.3945 33.4695 26.683 33.7523 26.9659C34.0012 27.2148 34.2501 27.4524 34.499 27.6786C34.7479 27.9049 34.9685 28.1029 35.1609 28.2726L32.4965 43.3255L39.115 36.707C39.6015 36.2205 39.9353 35.8075 40.1163 35.4681C40.3086 35.14 40.3482 34.8063 40.2351 34.4669C40.1333 34.1161 39.8674 33.7032 39.4375 33.228L39.7769 32.8886C39.9692 33.1036 40.2294 33.3864 40.5575 33.7371C40.8856 34.0879 41.1967 34.4103 41.4909 34.7045C41.7737 34.9873 42.0622 35.2645 42.3564 35.536C42.6506 35.8075 42.8938 36.0282 43.0861 36.1979Z" fill="#2F3A44"/>
</g>
<defs>
<clipPath id="clip0_635_1952">
<rect width="60" height="60" fill="white" transform="translate(0 5)"/>
</clipPath>
</defs>
</svg>
