<svg width="47" height="6574" viewBox="0 0 47 6574" fill="none" xmlns="http://www.w3.org/2000/svg">
<path d="M23.4613 6566.8C-6.53873 6479.3 -6.53873 6632.43 23.4613 6544.93C53.4613 6457.42 53.4613 6610.55 23.4613 6523.05C-6.53873 6435.55 -6.53873 6588.68 23.4613 6501.17C53.4613 6413.67 53.4613 6566.8 23.4613 6479.3C-6.53873 6391.79 -6.53873 6544.93 23.4613 6457.42C53.4613 6369.92 53.4613 6523.05 23.4613 6435.55C-6.53873 6348.04 -6.53873 6501.17 23.4613 6413.67C53.4613 6326.17 53.4613 6479.3 23.4613 6391.79C-6.53873 6304.29 -6.53873 6457.42 23.4613 6369.92C53.4613 6282.41 53.4613 6435.55 23.4613 6348.04C-6.53873 6260.54 -6.53873 6413.67 23.4613 6326.17C53.4613 6238.66 53.4613 6391.79 23.4613 6304.29C-6.53873 6216.78 -6.53873 6369.92 23.4613 6282.41C53.4613 6194.91 53.4613 6348.04 23.4613 6260.54C-6.53873 6173.03 -6.53873 6326.17 23.4613 6238.66C53.4613 6151.16 53.4613 6304.29 23.4613 6216.78C-6.53873 6129.28 -6.53873 6282.41 23.4613 6194.91C53.4613 6107.4 53.4613 6260.54 23.4613 6173.03C-6.53873 6085.53 -6.53873 6238.66 23.4613 6151.16C53.4613 6063.65 53.4613 6216.78 23.4613 6129.28C-6.53873 6041.78 -6.53873 6194.91 23.4613 6107.4C53.4613 6019.9 53.4613 6173.03 23.4613 6085.53C-6.53873 5998.02 -6.53873 6151.16 23.4613 6063.65C53.4613 5976.15 53.4613 6129.28 23.4613 6041.78C-6.53873 5954.27 -6.53873 6107.4 23.4613 6019.9C53.4613 5932.4 53.4613 6085.53 23.4613 5998.02C-6.53873 5910.52 -6.53873 6063.65 23.4613 5976.15C53.4613 5888.64 53.4613 6041.78 23.4613 5954.27C-6.53873 5866.77 -6.53873 6019.9 23.4613 5932.4C53.4613 5844.89 53.4613 5998.02 23.4613 5910.52C-6.53873 5823.02 -6.53873 5976.15 23.4613 5888.64C53.4613 5801.14 53.4613 5954.27 23.4613 5866.77C-6.53873 5779.26 -6.53873 5932.4 23.4613 5844.89C53.4613 5757.39 53.4613 5910.52 23.4613 5823.02C-6.53873 5735.51 -6.53873 5888.64 23.4613 5801.14C53.4613 5713.64 53.4613 5866.77 23.4613 5779.26C-6.53873 5691.76 -6.53873 5844.89 23.4613 5757.39C53.4613 5669.88 53.4613 5823.02 23.4613 5735.51C-6.53873 5648.01 -6.53873 5801.14 23.4613 5713.64C53.4613 5626.13 53.4613 5779.26 23.4613 5691.76C-6.53873 5604.26 -6.53873 5757.39 23.4613 5669.88C53.4613 5582.38 53.4613 5735.51 23.4613 5648.01C-6.53873 5560.5 -6.53873 5713.64 23.4613 5626.13C53.4613 5538.63 53.4613 5691.76 23.4613 5604.26C-6.53873 5516.75 -6.53873 5669.88 23.4613 5582.38C53.4613 5494.88 53.4613 5648.01 23.4613 5560.5C-6.53873 5473 -6.53873 5626.13 23.4613 5538.63C53.4613 5451.12 53.4613 5604.26 23.4613 5516.75C-6.53873 5429.25 -6.53873 5582.38 23.4613 5494.88C53.4613 5407.37 53.4613 5560.5 23.4613 5473C-6.53873 5385.5 -6.53873 5538.63 23.4613 5451.12C53.4613 5363.62 53.4613 5516.75 23.4613 5429.25C-6.53873 5341.74 -6.53873 5494.88 23.4613 5407.37C53.4613 5319.87 53.4613 5473 23.4613 5385.5C-6.53873 5297.99 -6.53873 5451.12 23.4613 5363.62C53.4613 5276.12 53.4613 5429.25 23.4613 5341.74C-6.53873 5254.24 -6.53873 5407.37 23.4613 5319.87C53.4613 5232.36 53.4613 5385.5 23.4613 5297.99C-6.53873 5210.49 -6.53873 5363.62 23.4613 5276.12C53.4613 5188.61 53.4613 5341.74 23.4613 5254.24C-6.53873 5166.74 -6.53873 5319.87 23.4613 5232.36C53.4613 5144.86 53.4613 5297.99 23.4613 5210.49C-6.53873 5122.98 -6.53873 5276.12 23.4613 5188.61C53.4613 5101.11 53.4613 5254.24 23.4613 5166.74C-6.53873 5079.23 -6.53873 5232.36 23.4613 5144.86C53.4613 5057.36 53.4613 5210.49 23.4613 5122.98C-6.53873 5035.48 -6.53873 5188.61 23.4613 5101.11C53.4613 5013.6 53.4613 5166.74 23.4613 5079.23C-6.53873 4991.73 -6.53873 5144.86 23.4613 5057.36C53.4613 4969.85 53.4613 5122.98 23.4613 5035.48C-6.53873 4947.98 -6.53873 5101.11 23.4613 5013.6C53.4613 4926.1 53.4613 5079.23 23.4613 4991.73C-6.53873 4904.22 -6.53873 5057.36 23.4613 4969.85C53.4613 4882.35 53.4613 5035.48 23.4613 4947.98C-6.53873 4860.47 -6.53873 5013.6 23.4613 4926.1C53.4613 4838.6 53.4613 4991.73 23.4613 4904.22C-6.53873 4816.72 -6.53873 4969.85 23.4613 4882.35C53.4613 4794.84 53.4613 4947.98 23.4613 4860.47C-6.53873 4772.97 -6.53873 4926.1 23.4613 4838.6C53.4613 4751.09 53.4613 4904.22 23.4613 4816.72C-6.53873 4729.22 -6.53873 4882.35 23.4613 4794.84C53.4613 4707.34 53.4613 4860.47 23.4613 4772.97C-6.53873 4685.46 -6.53873 4838.6 23.4613 4751.09C53.4613 4663.59 53.4613 4816.72 23.4613 4729.22C-6.53873 4641.71 -6.53873 4794.84 23.4613 4707.34C53.4613 4619.83 53.4613 4772.97 23.4613 4685.46C-6.53873 4597.96 -6.53873 4751.09 23.4613 4663.59C53.4613 4576.08 53.4613 4729.22 23.4613 4641.71C-6.53873 4554.21 -6.53873 4707.34 23.4613 4619.83C53.4613 4532.33 53.4613 4685.46 23.4613 4597.96C-6.53873 4510.45 -6.53873 4663.59 23.4613 4576.08C53.4613 4488.58 53.4613 4641.71 23.4613 4554.21C-6.53873 4466.7 -6.53873 4619.83 23.4613 4532.33C53.4613 4444.83 53.4613 4597.96 23.4613 4510.45C-6.53873 4422.95 -6.53873 4576.08 23.4613 4488.58C53.4613 4401.07 53.4613 4554.21 23.4613 4466.7C-6.53873 4379.2 -6.53873 4532.33 23.4613 4444.83C53.4613 4357.32 53.4613 4510.45 23.4613 4422.95C-6.53873 4335.45 -6.53873 4488.58 23.4613 4401.07C53.4613 4313.57 53.4613 4466.7 23.4613 4379.2" stroke="#2F3A44" stroke-opacity="0.2" stroke-width="2" stroke-linecap="round" stroke-linejoin="round" stroke-dasharray="4 4"/>
<path d="M23.4613 2187.8C-6.53873 2100.3 -6.53873 2253.43 23.4613 2165.93C53.4613 2078.42 53.4613 2231.55 23.4613 2144.05C-6.53873 2056.55 -6.53873 2209.68 23.4613 2122.17C53.4613 2034.67 53.4613 2187.8 23.4613 2100.3C-6.53873 2012.79 -6.53873 2165.93 23.4613 2078.42C53.4613 1990.92 53.4613 2144.05 23.4613 2056.55C-6.53873 1969.04 -6.53873 2122.17 23.4613 2034.67C53.4613 1947.17 53.4613 2100.3 23.4613 2012.79C-6.53873 1925.29 -6.53873 2078.42 23.4613 1990.92C53.4613 1903.41 53.4613 2056.55 23.4613 1969.04C-6.53873 1881.54 -6.53873 2034.67 23.4613 1947.17C53.4613 1859.66 53.4613 2012.79 23.4613 1925.29C-6.53873 1837.78 -6.53873 1990.92 23.4613 1903.41C53.4613 1815.91 53.4613 1969.04 23.4613 1881.54C-6.53873 1794.03 -6.53873 1947.17 23.4613 1859.66C53.4613 1772.16 53.4613 1925.29 23.4613 1837.78C-6.53873 1750.28 -6.53873 1903.41 23.4613 1815.91C53.4613 1728.4 53.4613 1881.54 23.4613 1794.03C-6.53873 1706.53 -6.53873 1859.66 23.4613 1772.16C53.4613 1684.65 53.4613 1837.78 23.4613 1750.28C-6.53873 1662.78 -6.53873 1815.91 23.4613 1728.4C53.4613 1640.9 53.4613 1794.03 23.4613 1706.53C-6.53873 1619.02 -6.53873 1772.16 23.4613 1684.65C53.4613 1597.15 53.4613 1750.28 23.4613 1662.78C-6.53873 1575.27 -6.53873 1728.4 23.4613 1640.9C53.4613 1553.4 53.4613 1706.53 23.4613 1619.02C-6.53873 1531.52 -6.53873 1684.65 23.4613 1597.15C53.4613 1509.64 53.4613 1662.78 23.4613 1575.27C-6.53873 1487.77 -6.53873 1640.9 23.4613 1553.4C53.4613 1465.89 53.4613 1619.02 23.4613 1531.52C-6.53873 1444.02 -6.53873 1597.15 23.4613 1509.64C53.4613 1422.14 53.4613 1575.27 23.4613 1487.77C-6.53873 1400.26 -6.53873 1553.4 23.4613 1465.89C53.4613 1378.39 53.4613 1531.52 23.4613 1444.02C-6.53873 1356.51 -6.53873 1509.64 23.4613 1422.14C53.4613 1334.64 53.4613 1487.77 23.4613 1400.26C-6.53873 1312.76 -6.53873 1465.89 23.4613 1378.39C53.4613 1290.88 53.4613 1444.02 23.4613 1356.51C-6.53873 1269.01 -6.53873 1422.14 23.4613 1334.64C53.4613 1247.13 53.4613 1400.26 23.4613 1312.76C-6.53873 1225.26 -6.53873 1378.39 23.4613 1290.88C53.4613 1203.38 53.4613 1356.51 23.4613 1269.01C-6.53873 1181.5 -6.53873 1334.64 23.4613 1247.13C53.4613 1159.63 53.4613 1312.76 23.4613 1225.26C-6.53873 1137.75 -6.53873 1290.88 23.4613 1203.38C53.4613 1115.88 53.4613 1269.01 23.4613 1181.5C-6.53873 1094 -6.53873 1247.13 23.4613 1159.63C53.4613 1072.12 53.4613 1225.26 23.4613 1137.75C-6.53873 1050.25 -6.53873 1203.38 23.4613 1115.88C53.4613 1028.37 53.4613 1181.5 23.4613 1094C-6.53873 1006.5 -6.53873 1159.63 23.4613 1072.12C53.4613 984.62 53.4613 1137.75 23.4613 1050.25C-6.53873 962.744 -6.53873 1115.88 23.4613 1028.37C53.4613 940.868 53.4613 1094 23.4613 1006.5C-6.53873 918.992 -6.53873 1072.12 23.4613 984.62C53.4613 897.116 53.4613 1050.25 23.4613 962.744C-6.53873 875.24 -6.53873 1028.37 23.4613 940.868C53.4613 853.364 53.4613 1006.5 23.4613 918.992C-6.53873 831.488 -6.53873 984.62 23.4613 897.116C53.4613 809.612 53.4613 962.744 23.4613 875.24C-6.53873 787.736 -6.53873 940.868 23.4613 853.364C53.4613 765.86 53.4613 918.992 23.4613 831.488C-6.53873 743.984 -6.53873 897.116 23.4613 809.612C53.4613 722.108 53.4613 875.24 23.4613 787.736C-6.53873 700.232 -6.53873 853.364 23.4613 765.86C53.4613 678.356 53.4613 831.488 23.4613 743.984C-6.53873 656.48 -6.53873 809.612 23.4613 722.108C53.4613 634.603 53.4613 787.736 23.4613 700.232C-6.53873 612.727 -6.53873 765.86 23.4613 678.356C53.4613 590.851 53.4613 743.984 23.4613 656.48C-6.53873 568.975 -6.53873 722.108 23.4613 634.603C53.4613 547.099 53.4613 700.232 23.4613 612.727C-6.53873 525.223 -6.53873 678.356 23.4613 590.851C53.4613 503.347 53.4613 656.48 23.4613 568.975C-6.53873 481.471 -6.53873 634.603 23.4613 547.099C53.4613 459.595 53.4613 612.727 23.4613 525.223C-6.53873 437.719 -6.53873 590.851 23.4613 503.347C53.4613 415.843 53.4613 568.975 23.4613 481.471C-6.53873 393.967 -6.53873 547.099 23.4613 459.595C53.4613 372.091 53.4613 525.223 23.4613 437.719C-6.53873 350.215 -6.53873 503.347 23.4613 415.843C53.4613 328.339 53.4613 481.471 23.4613 393.967C-6.53873 306.463 -6.53873 459.595 23.4613 372.091C53.4613 284.587 53.4613 437.719 23.4613 350.215C-6.53873 262.711 -6.53873 415.843 23.4613 328.339C53.4613 240.835 53.4613 393.967 23.4613 306.463C-6.53873 218.959 -6.53873 372.091 23.4613 284.587C53.4613 197.083 53.4613 350.215 23.4613 262.711C-6.53873 175.207 -6.53873 328.339 23.4613 240.835C53.4613 153.331 53.4613 306.463 23.4613 218.959C-6.53873 131.455 -6.53873 284.587 23.4613 197.083C53.4613 109.579 53.4613 262.711 23.4613 175.207C-6.53873 87.7028 -6.53873 240.835 23.4613 153.331C53.4613 65.8268 53.4613 218.959 23.4613 131.455C-6.53873 43.9507 -6.53873 197.083 23.4613 109.579C53.4613 22.0747 53.4613 175.207 23.4613 87.7028C-6.53873 0.198678 -6.53873 153.331 23.4613 65.8268C53.4613 -21.6773 53.4613 131.455 23.4613 43.9507C-6.53873 -43.5534 -6.53873 109.579 23.4613 22.0747C53.4613 -65.4294 53.4613 87.7028 23.4613 0.198678" stroke="#2F3A44" stroke-opacity="0.2" stroke-width="2" stroke-linecap="round" stroke-linejoin="round" stroke-dasharray="4 4"/>
<path d="M23.4613 4374.8C-6.53873 4287.3 -6.53873 4440.43 23.4613 4352.93C53.4613 4265.42 53.4613 4418.55 23.4613 4331.05C-6.53873 4243.55 -6.53873 4396.68 23.4613 4309.17C53.4613 4221.67 53.4613 4374.8 23.4613 4287.3C-6.53873 4199.79 -6.53873 4352.93 23.4613 4265.42C53.4613 4177.92 53.4613 4331.05 23.4613 4243.55C-6.53873 4156.04 -6.53873 4309.17 23.4613 4221.67C53.4613 4134.17 53.4613 4287.3 23.4613 4199.79C-6.53873 4112.29 -6.53873 4265.42 23.4613 4177.92C53.4613 4090.41 53.4613 4243.55 23.4613 4156.04C-6.53873 4068.54 -6.53873 4221.67 23.4613 4134.17C53.4613 4046.66 53.4613 4199.79 23.4613 4112.29C-6.53873 4024.78 -6.53873 4177.92 23.4613 4090.41C53.4613 4002.91 53.4613 4156.04 23.4613 4068.54C-6.53873 3981.03 -6.53873 4134.17 23.4613 4046.66C53.4613 3959.16 53.4613 4112.29 23.4613 4024.78C-6.53873 3937.28 -6.53873 4090.41 23.4613 4002.91C53.4613 3915.4 53.4613 4068.54 23.4613 3981.03C-6.53873 3893.53 -6.53873 4046.66 23.4613 3959.16C53.4613 3871.65 53.4613 4024.78 23.4613 3937.28C-6.53873 3849.78 -6.53873 4002.91 23.4613 3915.4C53.4613 3827.9 53.4613 3981.03 23.4613 3893.53C-6.53873 3806.02 -6.53873 3959.16 23.4613 3871.65C53.4613 3784.15 53.4613 3937.28 23.4613 3849.78C-6.53873 3762.27 -6.53873 3915.4 23.4613 3827.9C53.4613 3740.4 53.4613 3893.53 23.4613 3806.02C-6.53873 3718.52 -6.53873 3871.65 23.4613 3784.15C53.4613 3696.64 53.4613 3849.78 23.4613 3762.27C-6.53873 3674.77 -6.53873 3827.9 23.4613 3740.4C53.4613 3652.89 53.4613 3806.02 23.4613 3718.52C-6.53873 3631.02 -6.53873 3784.15 23.4613 3696.64C53.4613 3609.14 53.4613 3762.27 23.4613 3674.77C-6.53873 3587.26 -6.53873 3740.4 23.4613 3652.89C53.4613 3565.39 53.4613 3718.52 23.4613 3631.02C-6.53873 3543.51 -6.53873 3696.64 23.4613 3609.14C53.4613 3521.64 53.4613 3674.77 23.4613 3587.26C-6.53873 3499.76 -6.53873 3652.89 23.4613 3565.39C53.4613 3477.88 53.4613 3631.02 23.4613 3543.51C-6.53873 3456.01 -6.53873 3609.14 23.4613 3521.64C53.4613 3434.13 53.4613 3587.26 23.4613 3499.76C-6.53873 3412.26 -6.53873 3565.39 23.4613 3477.88C53.4613 3390.38 53.4613 3543.51 23.4613 3456.01C-6.53873 3368.5 -6.53873 3521.64 23.4613 3434.13C53.4613 3346.63 53.4613 3499.76 23.4613 3412.26C-6.53873 3324.75 -6.53873 3477.88 23.4613 3390.38C53.4613 3302.88 53.4613 3456.01 23.4613 3368.5C-6.53873 3281 -6.53873 3434.13 23.4613 3346.63C53.4613 3259.12 53.4613 3412.26 23.4613 3324.75C-6.53873 3237.25 -6.53873 3390.38 23.4613 3302.88C53.4613 3215.37 53.4613 3368.5 23.4613 3281C-6.53873 3193.5 -6.53873 3346.63 23.4613 3259.12C53.4613 3171.62 53.4613 3324.75 23.4613 3237.25C-6.53873 3149.74 -6.53873 3302.88 23.4613 3215.37C53.4613 3127.87 53.4613 3281 23.4613 3193.5C-6.53873 3105.99 -6.53873 3259.12 23.4613 3171.62C53.4613 3084.12 53.4613 3237.25 23.4613 3149.74C-6.53873 3062.24 -6.53873 3215.37 23.4613 3127.87C53.4613 3040.36 53.4613 3193.5 23.4613 3105.99C-6.53873 3018.49 -6.53873 3171.62 23.4613 3084.12C53.4613 2996.61 53.4613 3149.74 23.4613 3062.24C-6.53873 2974.74 -6.53873 3127.87 23.4613 3040.36C53.4613 2952.86 53.4613 3105.99 23.4613 3018.49C-6.53873 2930.98 -6.53873 3084.12 23.4613 2996.61C53.4613 2909.11 53.4613 3062.24 23.4613 2974.74C-6.53873 2887.23 -6.53873 3040.36 23.4613 2952.86C53.4613 2865.36 53.4613 3018.49 23.4613 2930.98C-6.53873 2843.48 -6.53873 2996.61 23.4613 2909.11C53.4613 2821.6 53.4613 2974.74 23.4613 2887.23C-6.53873 2799.73 -6.53873 2952.86 23.4613 2865.36C53.4613 2777.85 53.4613 2930.98 23.4613 2843.48C-6.53873 2755.98 -6.53873 2909.11 23.4613 2821.6C53.4613 2734.1 53.4613 2887.23 23.4613 2799.73C-6.53873 2712.22 -6.53873 2865.36 23.4613 2777.85C53.4613 2690.35 53.4613 2843.48 23.4613 2755.98C-6.53873 2668.47 -6.53873 2821.6 23.4613 2734.1C53.4613 2646.6 53.4613 2799.73 23.4613 2712.22C-6.53873 2624.72 -6.53873 2777.85 23.4613 2690.35C53.4613 2602.84 53.4613 2755.98 23.4613 2668.47C-6.53873 2580.97 -6.53873 2734.1 23.4613 2646.6C53.4613 2559.09 53.4613 2712.22 23.4613 2624.72C-6.53873 2537.22 -6.53873 2690.35 23.4613 2602.84C53.4613 2515.34 53.4613 2668.47 23.4613 2580.97C-6.53873 2493.46 -6.53873 2646.6 23.4613 2559.09C53.4613 2471.59 53.4613 2624.72 23.4613 2537.22C-6.53873 2449.71 -6.53873 2602.84 23.4613 2515.34C53.4613 2427.83 53.4613 2580.97 23.4613 2493.46C-6.53873 2405.96 -6.53873 2559.09 23.4613 2471.59C53.4613 2384.08 53.4613 2537.22 23.4613 2449.71C-6.53873 2362.21 -6.53873 2515.34 23.4613 2427.83C53.4613 2340.33 53.4613 2493.46 23.4613 2405.96C-6.53873 2318.45 -6.53873 2471.59 23.4613 2384.08C53.4613 2296.58 53.4613 2449.71 23.4613 2362.21C-6.53873 2274.7 -6.53873 2427.83 23.4613 2340.33C53.4613 2252.83 53.4613 2405.96 23.4613 2318.45C-6.53873 2230.95 -6.53873 2384.08 23.4613 2296.58C53.4613 2209.07 53.4613 2362.21 23.4613 2274.7C-6.53873 2187.2 -6.53873 2340.33 23.4613 2252.83C53.4613 2165.32 53.4613 2318.45 23.4613 2230.95C-6.53873 2143.45 -6.53873 2296.58 23.4613 2209.07C53.4613 2121.57 53.4613 2274.7 23.4613 2187.2" stroke="#2F3A44" stroke-opacity="0.2" stroke-width="2" stroke-linecap="round" stroke-linejoin="round" stroke-dasharray="4 4"/>
</svg>
