<svg width="18" height="18" viewBox="0 0 18 18" fill="none" xmlns="http://www.w3.org/2000/svg">
<path d="M9 12C10.6568 12 12 10.6568 12 9C12 7.34314 10.6568 6 9 6C7.34314 6 6 7.34314 6 9C6 10.6568 7.34314 12 9 12Z" stroke="#2F3A44" stroke-opacity="0.8" stroke-width="1.5" stroke-linecap="round" stroke-linejoin="round"/>
<path d="M2.25 12V6C2.25 3.92893 3.92893 2.25 6 2.25H12C14.071 2.25 15.75 3.92893 15.75 6V12C15.75 14.071 14.071 15.75 12 15.75H6C3.92893 15.75 2.25 14.071 2.25 12Z" stroke="#2F3A44" stroke-opacity="0.8" stroke-width="1.5"/>
<path d="M13.125 4.88236L13.1325 4.87402" stroke="#2F3A44" stroke-opacity="0.8" stroke-width="1.5" stroke-linecap="round" stroke-linejoin="round"/>
</svg>
