<svg width="500" height="181" viewBox="0 0 500 181" fill="none" xmlns="http://www.w3.org/2000/svg">
<path d="M76.0266 49.5133L74.8137 54.7135C74.7609 54.9398 74.5587 55.1002 74.3264 55.1002H45.673C45.4409 55.1 45.2395 54.9396 45.1867 54.7135L43.9729 49.5133C43.9 49.1998 44.1383 48.9 44.4602 48.9H75.5402L75.6564 48.9137C75.9165 48.9755 76.0904 49.2391 76.0266 49.5133Z" stroke="#2F3A44"/>
<g clip-path="url(#clip0_611_1006)">
<rect x="45.85" y="55.85" width="28.3" height="28.3" fill="#2F3A44" stroke="#2F3A44" stroke-width="0.5"/>
<path d="M41.6 79.24C57.6 79.24 61.6 61.96 77.6 61.96" stroke="url(#paint0_linear_611_1006)" stroke-width="0.67" stroke-linecap="round" stroke-linejoin="round" stroke-dasharray="3 2"/>
<path d="M41.6 74.24C57.6 74.24 61.6 56.96 77.6 56.96" stroke="url(#paint1_linear_611_1006)" stroke-width="0.67" stroke-linecap="round" stroke-linejoin="round" stroke-dasharray="3 2"/>
<rect x="45.85" y="55.85" width="28.3" height="28.3" stroke="#2F3A44" stroke-width="0.5"/>
</g>
<path d="M43.9734 90.4867L45.1863 85.2865C45.2391 85.0602 45.4413 84.8998 45.6736 84.8998H74.327C74.5591 84.9 74.7605 85.0604 74.8133 85.2865L76.0271 90.4867C76.1 90.8002 75.8617 91.1 75.5398 91.1H44.4598L44.3436 91.0863C44.0835 91.0245 43.9096 90.7609 43.9734 90.4867Z" stroke="#2F3A44"/>
<path d="M212.045 133.442C211.181 133.442 210.413 133.218 209.741 132.77C209.079 132.322 208.562 131.687 208.189 130.866C207.815 130.045 207.629 129.074 207.629 127.954C207.629 127.122 207.735 126.37 207.949 125.698C208.162 125.026 208.466 124.455 208.861 123.986C209.266 123.506 209.741 123.143 210.285 122.898C210.839 122.642 211.453 122.514 212.125 122.514C212.733 122.514 213.271 122.637 213.741 122.882C214.221 123.127 214.599 123.426 214.877 123.778L214.445 124.226C214.157 123.895 213.815 123.639 213.421 123.458C213.037 123.277 212.61 123.186 212.141 123.186C211.373 123.186 210.706 123.383 210.141 123.778C209.586 124.162 209.154 124.711 208.845 125.426C208.546 126.13 208.397 126.973 208.397 127.954C208.397 128.925 208.546 129.773 208.845 130.498C209.143 131.223 209.57 131.783 210.125 132.178C210.679 132.573 211.335 132.77 212.093 132.77C212.637 132.77 213.122 132.669 213.549 132.466C213.975 132.263 214.381 131.949 214.765 131.522L215.165 131.938C214.77 132.397 214.322 132.765 213.821 133.042C213.33 133.309 212.738 133.442 212.045 133.442ZM217.892 133.25V125.57H218.5L218.564 126.994H218.612C218.857 126.525 219.161 126.141 219.524 125.842C219.897 125.533 220.319 125.378 220.788 125.378C220.927 125.378 221.055 125.389 221.172 125.41C221.3 125.431 221.428 125.474 221.556 125.538L221.364 126.146C221.257 126.114 221.156 126.093 221.06 126.082C220.975 126.061 220.852 126.05 220.692 126.05C220.351 126.05 219.988 126.199 219.604 126.498C219.231 126.786 218.895 127.293 218.596 128.018V133.25H217.892ZM226.366 133.442C225.705 133.442 225.107 133.282 224.574 132.962C224.041 132.642 223.614 132.183 223.294 131.586C222.974 130.978 222.814 130.258 222.814 129.426C222.814 128.583 222.974 127.863 223.294 127.266C223.614 126.658 224.025 126.194 224.526 125.874C225.038 125.543 225.582 125.378 226.158 125.378C226.766 125.378 227.289 125.517 227.726 125.794C228.174 126.071 228.515 126.477 228.75 127.01C228.985 127.533 229.102 128.173 229.102 128.93C229.102 129.015 229.097 129.111 229.086 129.218C229.086 129.314 229.075 129.415 229.054 129.522H223.246V128.914H228.43C228.43 127.933 228.227 127.202 227.822 126.722C227.417 126.231 226.867 125.986 226.174 125.986C225.747 125.986 225.331 126.109 224.926 126.354C224.521 126.599 224.185 126.978 223.918 127.49C223.662 127.991 223.534 128.626 223.534 129.394C223.534 130.098 223.662 130.711 223.918 131.234C224.174 131.746 224.521 132.141 224.958 132.418C225.395 132.685 225.886 132.818 226.43 132.818C226.846 132.818 227.225 132.765 227.566 132.658C227.918 132.541 228.227 132.386 228.494 132.194L228.782 132.69C228.483 132.893 228.147 133.069 227.774 133.218C227.401 133.367 226.931 133.442 226.366 133.442ZM225.006 124.13L227.198 121.666H228.03L228.078 121.746L225.646 124.13H225.006ZM233.274 133.442C232.869 133.442 232.495 133.367 232.154 133.218C231.823 133.069 231.557 132.839 231.354 132.53C231.151 132.21 231.05 131.815 231.05 131.346C231.05 130.482 231.45 129.831 232.25 129.394C233.05 128.946 234.303 128.626 236.01 128.434C236.01 128.039 235.962 127.655 235.866 127.282C235.781 126.909 235.605 126.605 235.338 126.37C235.082 126.125 234.698 126.002 234.186 126.002C233.674 126.002 233.205 126.103 232.778 126.306C232.351 126.498 232.005 126.685 231.738 126.866L231.418 126.37C231.599 126.231 231.834 126.087 232.122 125.938C232.41 125.778 232.735 125.645 233.098 125.538C233.471 125.431 233.866 125.378 234.282 125.378C234.879 125.378 235.354 125.511 235.706 125.778C236.069 126.045 236.325 126.402 236.474 126.85C236.634 127.298 236.714 127.794 236.714 128.338V133.25H236.106L236.042 132.258H235.994C235.61 132.567 235.183 132.845 234.714 133.09C234.255 133.325 233.775 133.442 233.274 133.442ZM233.402 132.818C233.839 132.818 234.261 132.717 234.666 132.514C235.082 132.301 235.53 131.991 236.01 131.586V128.994C234.954 129.111 234.117 129.277 233.498 129.49C232.879 129.693 232.437 129.943 232.17 130.242C231.903 130.541 231.77 130.893 231.77 131.298C231.77 131.842 231.93 132.231 232.25 132.466C232.581 132.701 232.965 132.818 233.402 132.818ZM242.017 133.378C241.271 133.378 240.764 133.165 240.497 132.738C240.231 132.311 240.097 131.757 240.097 131.074V126.178H238.897V125.634L240.113 125.57L240.209 123.026H240.817V125.57H243.041V126.178H240.817V131.122C240.817 131.613 240.903 132.013 241.073 132.322C241.244 132.621 241.591 132.77 242.113 132.77C242.263 132.77 242.412 132.754 242.561 132.722C242.721 132.679 242.892 132.615 243.073 132.53L243.297 133.026C243.095 133.133 242.881 133.218 242.657 133.282C242.433 133.346 242.22 133.378 242.017 133.378ZM245.546 133.25V125.57H246.154L246.218 126.994H246.266C246.511 126.525 246.815 126.141 247.178 125.842C247.551 125.533 247.972 125.378 248.442 125.378C248.58 125.378 248.708 125.389 248.826 125.41C248.954 125.431 249.082 125.474 249.21 125.538L249.018 126.146C248.911 126.114 248.81 126.093 248.714 126.082C248.628 126.061 248.506 126.05 248.346 126.05C248.004 126.05 247.642 126.199 247.258 126.498C246.884 126.786 246.548 127.293 246.25 128.018V133.25H245.546ZM251.264 133.25V125.57H251.968V133.25H251.264ZM251.6 123.714C251.429 123.714 251.285 123.655 251.168 123.538C251.051 123.41 250.992 123.25 250.992 123.058C250.992 122.866 251.051 122.717 251.168 122.61C251.285 122.493 251.429 122.434 251.6 122.434C251.781 122.434 251.925 122.493 252.032 122.61C252.149 122.717 252.208 122.866 252.208 123.058C252.208 123.25 252.149 123.41 252.032 123.538C251.925 123.655 251.781 123.714 251.6 123.714ZM258.408 133.442C257.747 133.442 257.149 133.287 256.616 132.978C256.093 132.658 255.677 132.199 255.368 131.602C255.069 130.994 254.92 130.269 254.92 129.426C254.92 128.573 255.08 127.842 255.4 127.234C255.731 126.626 256.163 126.167 256.696 125.858C257.229 125.538 257.805 125.378 258.424 125.378C258.957 125.378 259.4 125.469 259.752 125.65C260.104 125.821 260.413 126.045 260.68 126.322L260.296 126.754C260.072 126.519 259.805 126.338 259.496 126.21C259.187 126.071 258.835 126.002 258.44 126.002C257.917 126.002 257.448 126.146 257.032 126.434C256.616 126.722 256.28 127.122 256.024 127.634C255.779 128.146 255.656 128.743 255.656 129.426C255.656 130.098 255.768 130.69 255.992 131.202C256.227 131.714 256.552 132.114 256.968 132.402C257.384 132.679 257.875 132.818 258.44 132.818C258.856 132.818 259.24 132.743 259.592 132.594C259.944 132.434 260.243 132.226 260.488 131.97L260.856 132.402C260.536 132.711 260.173 132.962 259.768 133.154C259.363 133.346 258.909 133.442 258.408 133.442ZM266.034 133.442C265.373 133.442 264.775 133.282 264.242 132.962C263.709 132.642 263.282 132.183 262.962 131.586C262.642 130.978 262.482 130.258 262.482 129.426C262.482 128.583 262.642 127.863 262.962 127.266C263.282 126.658 263.693 126.194 264.194 125.874C264.706 125.543 265.25 125.378 265.826 125.378C266.434 125.378 266.957 125.517 267.394 125.794C267.842 126.071 268.183 126.477 268.418 127.01C268.653 127.533 268.77 128.173 268.77 128.93C268.77 129.015 268.765 129.111 268.754 129.218C268.754 129.314 268.743 129.415 268.722 129.522H262.914V128.914H268.098C268.098 127.933 267.895 127.202 267.49 126.722C267.085 126.231 266.535 125.986 265.842 125.986C265.415 125.986 264.999 126.109 264.594 126.354C264.189 126.599 263.853 126.978 263.586 127.49C263.33 127.991 263.202 128.626 263.202 129.394C263.202 130.098 263.33 130.711 263.586 131.234C263.842 131.746 264.189 132.141 264.626 132.418C265.063 132.685 265.554 132.818 266.098 132.818C266.514 132.818 266.893 132.765 267.234 132.658C267.586 132.541 267.895 132.386 268.162 132.194L268.45 132.69C268.151 132.893 267.815 133.069 267.442 133.218C267.069 133.367 266.599 133.442 266.034 133.442ZM276.108 130.786C275.841 130.786 275.585 130.717 275.34 130.578C275.094 130.429 274.892 130.226 274.732 129.97C274.582 129.703 274.508 129.389 274.508 129.026C274.508 128.663 274.582 128.354 274.732 128.098C274.892 127.842 275.094 127.639 275.34 127.49C275.585 127.341 275.841 127.266 276.108 127.266C276.385 127.266 276.646 127.341 276.892 127.49C277.137 127.639 277.334 127.842 277.484 128.098C277.644 128.354 277.724 128.663 277.724 129.026C277.724 129.389 277.644 129.703 277.484 129.97C277.334 130.226 277.137 130.429 276.892 130.578C276.646 130.717 276.385 130.786 276.108 130.786ZM288.147 133.442C287.283 133.442 286.515 133.218 285.843 132.77C285.181 132.322 284.664 131.687 284.291 130.866C283.917 130.045 283.731 129.074 283.731 127.954C283.731 127.122 283.837 126.37 284.051 125.698C284.264 125.026 284.568 124.455 284.963 123.986C285.368 123.506 285.843 123.143 286.387 122.898C286.941 122.642 287.555 122.514 288.227 122.514C288.835 122.514 289.373 122.637 289.843 122.882C290.323 123.127 290.701 123.426 290.979 123.778L290.547 124.226C290.259 123.895 289.917 123.639 289.523 123.458C289.139 123.277 288.712 123.186 288.243 123.186C287.475 123.186 286.808 123.383 286.243 123.778C285.688 124.162 285.256 124.711 284.947 125.426C284.648 126.13 284.499 126.973 284.499 127.954C284.499 128.925 284.648 129.773 284.947 130.498C285.245 131.223 285.672 131.783 286.227 132.178C286.781 132.573 287.437 132.77 288.195 132.77C288.739 132.77 289.224 132.669 289.651 132.466C290.077 132.263 290.483 131.949 290.867 131.522L291.267 131.938C290.872 132.397 290.424 132.765 289.923 133.042C289.432 133.309 288.84 133.442 288.147 133.442ZM296.794 133.442C296.186 133.442 295.615 133.287 295.082 132.978C294.559 132.658 294.138 132.199 293.818 131.602C293.509 130.994 293.354 130.269 293.354 129.426C293.354 128.573 293.509 127.842 293.818 127.234C294.138 126.626 294.559 126.167 295.082 125.858C295.615 125.538 296.186 125.378 296.794 125.378C297.413 125.378 297.983 125.538 298.506 125.858C299.029 126.167 299.45 126.626 299.77 127.234C300.09 127.842 300.25 128.573 300.25 129.426C300.25 130.269 300.09 130.994 299.77 131.602C299.45 132.199 299.029 132.658 298.506 132.978C297.983 133.287 297.413 133.442 296.794 133.442ZM296.794 132.818C297.317 132.818 297.781 132.679 298.186 132.402C298.602 132.114 298.927 131.714 299.162 131.202C299.397 130.69 299.514 130.098 299.514 129.426C299.514 128.754 299.397 128.162 299.162 127.65C298.927 127.127 298.602 126.722 298.186 126.434C297.781 126.146 297.317 126.002 296.794 126.002C296.282 126.002 295.823 126.146 295.418 126.434C295.013 126.722 294.687 127.127 294.442 127.65C294.207 128.162 294.09 128.754 294.09 129.426C294.09 130.098 294.207 130.69 294.442 131.202C294.687 131.714 295.013 132.114 295.418 132.402C295.823 132.679 296.282 132.818 296.794 132.818ZM305.404 133.442C304.615 133.442 304.028 133.202 303.644 132.722C303.271 132.231 303.084 131.49 303.084 130.498V125.57H303.788V130.402C303.788 131.213 303.927 131.815 304.204 132.21C304.482 132.605 304.924 132.802 305.532 132.802C305.991 132.802 306.407 132.679 306.78 132.434C307.154 132.178 307.564 131.778 308.012 131.234V125.57H308.716V133.25H308.124L308.044 131.97H308.012C307.639 132.407 307.244 132.765 306.828 133.042C306.412 133.309 305.938 133.442 305.404 133.442ZM314.401 133.378C313.654 133.378 313.148 133.165 312.881 132.738C312.614 132.311 312.481 131.757 312.481 131.074V126.178H311.281V125.634L312.497 125.57L312.593 123.026H313.201V125.57H315.425V126.178H313.201V131.122C313.201 131.613 313.286 132.013 313.457 132.322C313.628 132.621 313.974 132.77 314.497 132.77C314.646 132.77 314.796 132.754 314.945 132.722C315.105 132.679 315.276 132.615 315.457 132.53L315.681 133.026C315.478 133.133 315.265 133.218 315.041 133.282C314.817 133.346 314.604 133.378 314.401 133.378ZM320.137 133.442C319.348 133.442 318.761 133.202 318.377 132.722C318.004 132.231 317.817 131.49 317.817 130.498V125.57H318.521V130.402C318.521 131.213 318.66 131.815 318.937 132.21C319.215 132.605 319.657 132.802 320.265 132.802C320.724 132.802 321.14 132.679 321.513 132.434C321.887 132.178 322.297 131.778 322.745 131.234V125.57H323.449V133.25H322.857L322.777 131.97H322.745C322.372 132.407 321.977 132.765 321.561 133.042C321.145 133.309 320.671 133.442 320.137 133.442ZM327.038 133.25V125.57H327.646L327.71 126.994H327.758C328.004 126.525 328.308 126.141 328.67 125.842C329.044 125.533 329.465 125.378 329.934 125.378C330.073 125.378 330.201 125.389 330.318 125.41C330.446 125.431 330.574 125.474 330.702 125.538L330.51 126.146C330.404 126.114 330.302 126.093 330.206 126.082C330.121 126.061 329.998 126.05 329.838 126.05C329.497 126.05 329.134 126.199 328.75 126.498C328.377 126.786 328.041 127.293 327.742 128.018V133.25H327.038ZM332.756 133.25V125.57H333.46V133.25H332.756ZM333.092 123.714C332.922 123.714 332.778 123.655 332.66 123.538C332.543 123.41 332.484 123.25 332.484 123.058C332.484 122.866 332.543 122.717 332.66 122.61C332.778 122.493 332.922 122.434 333.092 122.434C333.274 122.434 333.418 122.493 333.524 122.61C333.642 122.717 333.7 122.866 333.7 123.058C333.7 123.25 333.642 123.41 333.524 123.538C333.418 123.655 333.274 123.714 333.092 123.714ZM339.965 133.442C339.303 133.442 338.706 133.282 338.173 132.962C337.639 132.642 337.213 132.183 336.893 131.586C336.573 130.978 336.413 130.258 336.413 129.426C336.413 128.583 336.573 127.863 336.893 127.266C337.213 126.658 337.623 126.194 338.125 125.874C338.637 125.543 339.181 125.378 339.757 125.378C340.365 125.378 340.887 125.517 341.325 125.794C341.773 126.071 342.114 126.477 342.349 127.01C342.583 127.533 342.701 128.173 342.701 128.93C342.701 129.015 342.695 129.111 342.685 129.218C342.685 129.314 342.674 129.415 342.653 129.522H336.845V128.914H342.029C342.029 127.933 341.826 127.202 341.421 126.722C341.015 126.231 340.466 125.986 339.773 125.986C339.346 125.986 338.93 126.109 338.525 126.354C338.119 126.599 337.783 126.978 337.517 127.49C337.261 127.991 337.133 128.626 337.133 129.394C337.133 130.098 337.261 130.711 337.517 131.234C337.773 131.746 338.119 132.141 338.557 132.418C338.994 132.685 339.485 132.818 340.029 132.818C340.445 132.818 340.823 132.765 341.165 132.658C341.517 132.541 341.826 132.386 342.093 132.194L342.381 132.69C342.082 132.893 341.746 133.069 341.373 133.218C340.999 133.367 340.53 133.442 339.965 133.442ZM340.269 124.13L337.837 121.746L337.885 121.666H338.717L340.909 124.13H340.269ZM345.427 133.25V125.57H346.035L346.099 126.994H346.147C346.392 126.525 346.696 126.141 347.059 125.842C347.432 125.533 347.854 125.378 348.323 125.378C348.462 125.378 348.59 125.389 348.707 125.41C348.835 125.431 348.963 125.474 349.091 125.538L348.899 126.146C348.792 126.114 348.691 126.093 348.595 126.082C348.51 126.061 348.387 126.05 348.227 126.05C347.886 126.05 347.523 126.199 347.139 126.498C346.766 126.786 346.43 127.293 346.131 128.018V133.25H345.427ZM353.901 133.442C353.24 133.442 352.642 133.282 352.109 132.962C351.576 132.642 351.149 132.183 350.829 131.586C350.509 130.978 350.349 130.258 350.349 129.426C350.349 128.583 350.509 127.863 350.829 127.266C351.149 126.658 351.56 126.194 352.061 125.874C352.573 125.543 353.117 125.378 353.693 125.378C354.301 125.378 354.824 125.517 355.261 125.794C355.709 126.071 356.05 126.477 356.285 127.01C356.52 127.533 356.637 128.173 356.637 128.93C356.637 129.015 356.632 129.111 356.621 129.218C356.621 129.314 356.61 129.415 356.589 129.522H350.781V128.914H355.965C355.965 127.933 355.762 127.202 355.357 126.722C354.952 126.231 354.402 125.986 353.709 125.986C353.282 125.986 352.866 126.109 352.461 126.354C352.056 126.599 351.72 126.978 351.453 127.49C351.197 127.991 351.069 128.626 351.069 129.394C351.069 130.098 351.197 130.711 351.453 131.234C351.709 131.746 352.056 132.141 352.493 132.418C352.93 132.685 353.421 132.818 353.965 132.818C354.381 132.818 354.76 132.765 355.101 132.658C355.453 132.541 355.762 132.386 356.029 132.194L356.317 132.69C356.018 132.893 355.682 133.069 355.309 133.218C354.936 133.367 354.466 133.442 353.901 133.442Z" fill="#2F3A44"/>
<path d="M124.721 49.28L139.361 86.96C139.921 88.44 140.561 89.44 141.281 89.96C142.041 90.48 142.741 90.76 143.381 90.8V92C142.421 91.92 141.281 91.88 139.961 91.88C138.681 91.84 137.381 91.82 136.061 91.82C134.381 91.82 132.821 91.84 131.381 91.88C129.941 91.88 128.781 91.92 127.901 92V90.8C129.941 90.72 131.221 90.38 131.741 89.78C132.301 89.14 132.181 87.8 131.381 85.76L120.581 56.6L121.541 55.52L111.581 81.56C110.861 83.36 110.421 84.86 110.261 86.06C110.141 87.26 110.241 88.2 110.561 88.88C110.921 89.56 111.521 90.04 112.361 90.32C113.201 90.6 114.241 90.76 115.481 90.8V92C114.281 91.92 113.061 91.88 111.821 91.88C110.621 91.84 109.481 91.82 108.401 91.82C107.441 91.82 106.581 91.84 105.821 91.88C105.101 91.88 104.441 91.92 103.841 92V90.8C104.681 90.6 105.521 90.1 106.361 89.3C107.201 88.5 108.001 87.14 108.761 85.22L122.681 49.28C123.001 49.28 123.341 49.28 123.701 49.28C124.061 49.28 124.401 49.28 124.721 49.28ZM131.021 74.72V75.92H113.141L113.741 74.72H131.021ZM169.681 60.38V85.52C169.681 87.32 169.981 88.66 170.581 89.54C171.221 90.38 172.361 90.8 174.001 90.8V92.06C172.761 91.94 171.521 91.88 170.281 91.88C168.961 91.88 167.701 91.94 166.501 92.06C165.301 92.18 164.201 92.4 163.201 92.72V86.18C162.201 88.58 160.801 90.3 159.001 91.34C157.241 92.34 155.381 92.84 153.421 92.84C151.941 92.84 150.681 92.62 149.641 92.18C148.601 91.78 147.741 91.24 147.061 90.56C146.341 89.76 145.841 88.74 145.561 87.5C145.281 86.22 145.141 84.62 145.141 82.7V67.58C145.141 65.78 144.841 64.46 144.241 63.62C143.641 62.74 142.501 62.3 140.821 62.3V61.04C142.101 61.16 143.341 61.22 144.541 61.22C145.861 61.22 147.121 61.16 148.321 61.04C149.521 60.88 150.621 60.66 151.621 60.38V84.38C151.621 85.54 151.701 86.6 151.861 87.56C152.021 88.52 152.401 89.28 153.001 89.84C153.601 90.4 154.561 90.68 155.881 90.68C157.281 90.68 158.521 90.26 159.601 89.42C160.721 88.58 161.601 87.44 162.241 86C162.881 84.56 163.201 82.94 163.201 81.14V67.58C163.201 65.78 162.901 64.46 162.301 63.62C161.701 62.74 160.561 62.3 158.881 62.3V61.04C160.161 61.16 161.401 61.22 162.601 61.22C163.921 61.22 165.181 61.16 166.381 61.04C167.581 60.88 168.681 60.66 169.681 60.38ZM204.301 45.08C205.501 45.08 206.561 45.24 207.481 45.56C208.401 45.88 209.221 46.3 209.941 46.82C210.501 47.3 210.961 47.88 211.321 48.56C211.681 49.24 211.861 49.98 211.861 50.78C211.861 51.78 211.521 52.62 210.841 53.3C210.201 53.98 209.361 54.32 208.321 54.32C207.281 54.32 206.401 54 205.681 53.36C204.961 52.72 204.601 51.84 204.601 50.72C204.601 49.8 204.841 49.04 205.321 48.44C205.841 47.84 206.541 47.42 207.421 47.18C207.301 46.86 207.021 46.6 206.581 46.4C206.141 46.16 205.541 46.04 204.781 46.04C203.901 46.04 203.141 46.22 202.501 46.58C201.901 46.94 201.421 47.42 201.061 48.02C200.621 48.78 200.321 49.92 200.161 51.44C200.041 52.92 199.981 55.2 199.981 58.28V61.1H206.401V62.3H199.981V85.82C199.981 87.78 200.521 89.1 201.601 89.78C202.721 90.42 204.221 90.74 206.101 90.74V92C205.141 91.96 203.781 91.92 202.021 91.88C200.301 91.8 198.461 91.76 196.501 91.76C195.101 91.76 193.701 91.8 192.301 91.88C190.941 91.92 189.901 91.96 189.181 92V90.74C190.741 90.74 191.841 90.44 192.481 89.84C193.161 89.24 193.501 88.1 193.501 86.42V62.3H188.941V61.1H193.501C193.501 58.74 193.601 56.78 193.801 55.22C194.041 53.62 194.401 52.26 194.881 51.14C195.361 49.98 196.001 48.96 196.801 48.08C197.641 47.2 198.701 46.48 199.981 45.92C201.301 45.36 202.741 45.08 204.301 45.08ZM217.853 45.92C219.093 45.92 220.133 46.32 220.973 47.12C221.813 47.88 222.233 48.84 222.233 50C222.233 51.16 221.813 52.14 220.973 52.94C220.133 53.7 219.093 54.08 217.853 54.08C216.613 54.08 215.573 53.7 214.733 52.94C213.893 52.14 213.473 51.16 213.473 50C213.473 48.84 213.893 47.88 214.733 47.12C215.573 46.32 216.613 45.92 217.853 45.92ZM221.453 60.38V86.42C221.453 88.1 221.773 89.24 222.413 89.84C223.093 90.44 224.213 90.74 225.773 90.74V92C225.093 91.96 224.033 91.92 222.593 91.88C221.193 91.8 219.753 91.76 218.273 91.76C216.873 91.76 215.433 91.8 213.953 91.88C212.473 91.92 211.373 91.96 210.653 92V90.74C212.213 90.74 213.313 90.44 213.953 89.84C214.633 89.24 214.973 88.1 214.973 86.42V67.58C214.973 65.78 214.673 64.46 214.073 63.62C213.473 62.74 212.333 62.3 210.653 62.3V61.04C211.933 61.16 213.173 61.22 214.373 61.22C215.733 61.22 216.993 61.16 218.153 61.04C219.353 60.88 220.453 60.66 221.453 60.38ZM240.281 44.96V86.42C240.281 88.1 240.601 89.24 241.241 89.84C241.921 90.44 243.041 90.74 244.601 90.74V92C243.921 91.96 242.861 91.92 241.421 91.88C239.981 91.8 238.541 91.76 237.101 91.76C235.661 91.76 234.201 91.8 232.721 91.88C231.281 91.92 230.201 91.96 229.481 92V90.74C231.041 90.74 232.141 90.44 232.781 89.84C233.461 89.24 233.801 88.1 233.801 86.42V52.16C233.801 50.36 233.501 49.04 232.901 48.2C232.301 47.32 231.161 46.88 229.481 46.88V45.62C230.761 45.74 232.001 45.8 233.201 45.8C234.521 45.8 235.781 45.74 236.981 45.62C238.181 45.46 239.281 45.24 240.281 44.96ZM287.807 44.96V85.46C287.807 87.26 288.107 88.6 288.707 89.48C289.347 90.32 290.487 90.74 292.127 90.74V92C290.887 91.88 289.647 91.82 288.407 91.82C287.047 91.82 285.767 91.88 284.567 92C283.407 92.12 282.327 92.34 281.327 92.66V52.16C281.327 50.36 281.007 49.04 280.367 48.2C279.767 47.32 278.647 46.88 277.007 46.88V45.62C278.287 45.74 279.527 45.8 280.727 45.8C282.047 45.8 283.307 45.74 284.507 45.62C285.707 45.46 286.807 45.24 287.807 44.96ZM274.307 60.2C276.067 60.2 277.667 60.58 279.107 61.34C280.587 62.1 281.627 63.38 282.227 65.18L281.507 65.84C280.947 64.4 280.127 63.36 279.047 62.72C277.967 62.04 276.747 61.7 275.387 61.7C273.107 61.7 271.247 62.92 269.807 65.36C268.367 67.76 267.667 71.48 267.707 76.52C267.707 79.84 267.987 82.56 268.547 84.68C269.107 86.76 269.927 88.3 271.007 89.3C272.127 90.3 273.467 90.8 275.027 90.8C276.587 90.8 277.987 90.14 279.227 88.82C280.507 87.5 281.267 85.6 281.507 83.12L282.047 84.38C281.647 87.1 280.687 89.2 279.167 90.68C277.647 92.12 275.607 92.84 273.047 92.84C270.607 92.84 268.447 92.26 266.567 91.1C264.727 89.9 263.307 88.1 262.307 85.7C261.307 83.26 260.807 80.2 260.807 76.52C260.807 72.88 261.407 69.86 262.607 67.46C263.847 65.02 265.487 63.2 267.527 62C269.567 60.8 271.827 60.2 274.307 60.2ZM308.621 60.2C312.141 60.2 314.901 61.26 316.901 63.38C318.901 65.5 319.901 68.86 319.901 73.46H299.201L299.081 72.32H313.541C313.581 70.36 313.421 68.56 313.061 66.92C312.701 65.24 312.141 63.9 311.381 62.9C310.621 61.9 309.621 61.4 308.381 61.4C306.661 61.4 305.161 62.32 303.881 64.16C302.641 65.96 301.881 68.86 301.601 72.86L301.781 73.16C301.741 73.72 301.701 74.34 301.661 75.02C301.621 75.66 301.601 76.3 301.601 76.94C301.601 79.7 302.021 82.02 302.861 83.9C303.701 85.78 304.801 87.2 306.161 88.16C307.521 89.08 308.901 89.54 310.301 89.54C311.381 89.54 312.421 89.38 313.421 89.06C314.461 88.7 315.441 88.12 316.361 87.32C317.281 86.48 318.101 85.34 318.821 83.9L320.021 84.38C319.541 85.74 318.801 87.08 317.801 88.4C316.801 89.72 315.521 90.8 313.961 91.64C312.401 92.44 310.581 92.84 308.501 92.84C305.701 92.84 303.261 92.22 301.181 90.98C299.101 89.7 297.501 87.88 296.381 85.52C295.261 83.16 294.701 80.36 294.701 77.12C294.701 73.56 295.281 70.52 296.441 68C297.601 65.48 299.221 63.56 301.301 62.24C303.421 60.88 305.861 60.2 308.621 60.2ZM375.343 49.52V50.72C373.983 50.8 372.963 51.04 372.283 51.44C371.603 51.84 371.143 52.5 370.903 53.42C370.703 54.3 370.603 55.56 370.603 57.2V92.24C370.283 92.24 369.963 92.24 369.643 92.24C369.323 92.24 368.983 92.24 368.623 92.24L343.183 55.28V84.08C343.183 85.76 343.303 87.08 343.543 88.04C343.783 88.96 344.303 89.62 345.103 90.02C345.903 90.42 347.123 90.68 348.763 90.8V92C348.003 91.92 347.023 91.88 345.823 91.88C344.663 91.84 343.563 91.82 342.523 91.82C341.523 91.82 340.523 91.84 339.523 91.88C338.523 91.88 337.703 91.92 337.063 92V90.8C338.383 90.68 339.383 90.44 340.063 90.08C340.743 89.68 341.203 89.02 341.443 88.1C341.683 87.18 341.803 85.92 341.803 84.32V55.88C341.803 54.4 341.683 53.32 341.443 52.64C341.203 51.92 340.743 51.44 340.063 51.2C339.383 50.92 338.383 50.76 337.063 50.72V49.52C337.703 49.56 338.523 49.6 339.523 49.64C340.523 49.68 341.523 49.7 342.523 49.7C343.403 49.7 344.263 49.68 345.103 49.64C345.943 49.6 346.683 49.56 347.323 49.52L369.223 80.84V57.44C369.223 55.72 369.083 54.4 368.803 53.48C368.563 52.56 368.043 51.9 367.243 51.5C366.443 51.06 365.243 50.8 363.643 50.72V49.52C364.363 49.56 365.323 49.6 366.523 49.64C367.723 49.68 368.843 49.7 369.883 49.7C370.883 49.7 371.883 49.68 372.883 49.64C373.883 49.6 374.703 49.56 375.343 49.52ZM384.91 92.42C383.23 92.42 381.79 92.1 380.59 91.46C379.39 90.82 378.49 89.94 377.89 88.82C377.29 87.7 376.99 86.42 376.99 84.98C376.99 83.22 377.39 81.8 378.19 80.72C378.99 79.6 380.01 78.7 381.25 78.02C382.53 77.34 383.87 76.78 385.27 76.34C386.71 75.86 388.05 75.42 389.29 75.02C390.57 74.58 391.61 74.08 392.41 73.52C393.25 72.96 393.67 72.22 393.67 71.3V67.22C393.67 65.78 393.43 64.64 392.95 63.8C392.51 62.92 391.89 62.3 391.09 61.94C390.33 61.58 389.41 61.4 388.33 61.4C387.41 61.4 386.43 61.54 385.39 61.82C384.35 62.06 383.53 62.56 382.93 63.32C383.81 63.56 384.53 64.04 385.09 64.76C385.69 65.44 385.99 66.3 385.99 67.34C385.99 68.46 385.61 69.34 384.85 69.98C384.13 70.62 383.21 70.94 382.09 70.94C380.85 70.94 379.93 70.56 379.33 69.8C378.73 69 378.43 68.08 378.43 67.04C378.43 65.96 378.69 65.08 379.21 64.4C379.77 63.72 380.49 63.08 381.37 62.48C382.33 61.84 383.55 61.3 385.03 60.86C386.55 60.42 388.23 60.2 390.07 60.2C391.79 60.2 393.27 60.4 394.51 60.8C395.79 61.16 396.85 61.76 397.69 62.6C398.69 63.52 399.35 64.68 399.67 66.08C399.99 67.44 400.15 69.1 400.15 71.06V87.62C400.15 88.62 400.27 89.34 400.51 89.78C400.79 90.18 401.23 90.38 401.83 90.38C402.23 90.38 402.61 90.28 402.97 90.08C403.37 89.88 403.83 89.58 404.35 89.18L404.95 90.2C404.11 90.88 403.25 91.42 402.37 91.82C401.53 92.22 400.45 92.42 399.13 92.42C397.85 92.42 396.81 92.22 396.01 91.82C395.21 91.42 394.61 90.84 394.21 90.08C393.85 89.32 393.67 88.38 393.67 87.26C392.63 88.94 391.39 90.22 389.95 91.1C388.51 91.98 386.83 92.42 384.91 92.42ZM387.79 89.54C388.91 89.54 389.95 89.22 390.91 88.58C391.91 87.94 392.83 86.98 393.67 85.7V73.76C393.23 74.4 392.59 74.96 391.75 75.44C390.91 75.88 390.01 76.34 389.05 76.82C388.09 77.3 387.17 77.86 386.29 78.5C385.45 79.1 384.75 79.88 384.19 80.84C383.63 81.8 383.35 83.02 383.35 84.5C383.35 86.06 383.75 87.3 384.55 88.22C385.35 89.1 386.43 89.54 387.79 89.54ZM416.043 51.14V61.1H424.323V62.3H416.043V85.88C416.043 87.52 416.343 88.68 416.943 89.36C417.543 90.04 418.403 90.38 419.523 90.38C420.563 90.38 421.483 89.96 422.283 89.12C423.123 88.28 423.843 86.86 424.443 84.86L425.583 85.28C425.103 87.4 424.243 89.2 423.003 90.68C421.803 92.12 420.023 92.84 417.663 92.84C416.303 92.84 415.163 92.66 414.243 92.3C413.323 91.98 412.523 91.5 411.843 90.86C410.963 89.94 410.363 88.84 410.043 87.56C409.723 86.28 409.563 84.58 409.563 82.46V62.3H404.043V61.1H409.563V52.34C410.803 52.3 411.963 52.2 413.043 52.04C414.123 51.84 415.123 51.54 416.043 51.14ZM435.875 45.02V66.86C436.875 64.38 438.275 62.66 440.075 61.7C441.915 60.7 443.855 60.2 445.895 60.2C447.495 60.2 448.795 60.42 449.795 60.86C450.835 61.26 451.695 61.82 452.375 62.54C453.095 63.3 453.615 64.28 453.935 65.48C454.255 66.68 454.415 68.3 454.415 70.34V86.42C454.415 88.1 454.735 89.24 455.375 89.84C456.055 90.44 457.175 90.74 458.735 90.74V92C458.015 91.96 456.935 91.92 455.495 91.88C454.055 91.8 452.655 91.76 451.295 91.76C449.895 91.76 448.515 91.8 447.155 91.88C445.835 91.92 444.855 91.96 444.215 92V90.74C445.575 90.74 446.535 90.44 447.095 89.84C447.655 89.24 447.935 88.1 447.935 86.42V68.66C447.935 67.5 447.835 66.46 447.635 65.54C447.435 64.58 446.995 63.82 446.315 63.26C445.675 62.66 444.715 62.36 443.435 62.36C441.995 62.36 440.695 62.78 439.535 63.62C438.415 64.42 437.515 65.54 436.835 66.98C436.195 68.42 435.875 70.06 435.875 71.9V86.42C435.875 88.1 436.155 89.24 436.715 89.84C437.275 90.44 438.235 90.74 439.595 90.74V92C438.915 91.96 437.915 91.92 436.595 91.88C435.315 91.8 433.995 91.76 432.635 91.76C431.235 91.76 429.795 91.8 428.315 91.88C426.875 91.92 425.795 91.96 425.075 92V90.74C426.635 90.74 427.735 90.44 428.375 89.84C429.055 89.24 429.395 88.1 429.395 86.42V52.22C429.395 50.42 429.075 49.1 428.435 48.26C427.835 47.38 426.715 46.94 425.075 46.94V45.68C426.355 45.8 427.595 45.86 428.795 45.86C430.115 45.86 431.375 45.8 432.575 45.68C433.775 45.52 434.875 45.3 435.875 45.02Z" fill="#2F3A44"/>
<path d="M47.9464 74C47.9464 74 -65.6629 116.902 90.3065 107.709C246.276 98.5153 389 108.73 389 108.73" stroke="#2F3A44" stroke-width="0.5" stroke-linecap="round" stroke-linejoin="round" stroke-dasharray="1 1"/>
<defs>
<linearGradient id="paint0_linear_611_1006" x1="41.6" y1="70.6" x2="77.6" y2="70.6" gradientUnits="userSpaceOnUse">
<stop offset="0.25" stop-color="#E3DDF0"/>
<stop offset="0.5" stop-color="#F2D6DC"/>
<stop offset="0.75" stop-color="#DDE7F0"/>
</linearGradient>
<linearGradient id="paint1_linear_611_1006" x1="41.6" y1="65.6" x2="77.6" y2="65.6" gradientUnits="userSpaceOnUse">
<stop offset="0.25" stop-color="#E3DDF0"/>
<stop offset="0.5" stop-color="#F2D6DC"/>
<stop offset="0.75" stop-color="#DDE7F0"/>
</linearGradient>
<clipPath id="clip0_611_1006">
<rect width="28.8" height="28.8" fill="white" transform="translate(45.6 55.6)"/>
</clipPath>
</defs>
</svg>
